<?xml version="1.0" encoding="UTF-8"?>
<!-- Created with Inkscape (http://www.inkscape.org/) -->
<svg width="354.67" height="195.77" version="1.1" viewBox="0 0 93.839 51.798" xmlns="http://www.w3.org/2000/svg" xmlns:cc="http://creativecommons.org/ns#" xmlns:dc="http://purl.org/dc/elements/1.1/" xmlns:rdf="http://www.w3.org/1999/02/22-rdf-syntax-ns#" xmlns:xlink="http://www.w3.org/1999/xlink">
 <defs>
  <linearGradient id="a" x1="42.025" x2="107.52" y1="72.191" y2="72.191" gradientTransform="matrix(3.7795 0 0 3.7795 -105.27 -239.71)" gradientUnits="userSpaceOnUse">
   <stop stop-color="#976d39" offset="0"/>
   <stop stop-color="#c0873f" offset=".5"/>
   <stop stop-color="#ac7a3c" offset="1"/>
  </linearGradient>
 </defs>
 <metadata>
  <rdf:RDF>
   <cc:Work rdf:about="">
    <dc:format>image/svg+xml</dc:format>
    <dc:type rdf:resource="http://purl.org/dc/dcmitype/StillImage"/>
    <dc:title/>
   </cc:Work>
  </rdf:RDF>
 </metadata>
 <g transform="translate(-97.673 -174.62)">
  <path transform="matrix(.26458 0 0 .26458 97.673 174.62)" d="m177.33 0c-0.4267 0.68137-0.74639 1.437-1.248 2.0684-0.90414 1.1428-1.8528 2.2598-2.5703 3.5352-2.0663 3.6733-1.0121 8.561 2.3809 11.17h2.875c3.3916-2.6089 4.4463-7.4966 2.3828-11.17-0.72023-1.2753-1.6694-2.3923-2.5742-3.5352-0.4989-0.63141-0.82075-1.387-1.2461-2.0684zm-64.668 13.828c0 1.9824-0.20116 4.0882 0.96679 5.8125 0.38098 0.5627 0.86213 1.0238 1.3984 1.418-6.8518-1.045-14.878 0.38088-20.984 3.957-3.8287 2.2432-8.5633 6.2731-9.9434 12.883-3.726 0.77435-8.7063 0.015735-11.439-3.0684-2.271-2.5638-2.2166-6.267-0.77539-9.125 1.1358-0.70012 2.9477-0.63442 4.0059-1.252 0.73965-0.43226 1.5164-1.4301 1.1758-2.3301-0.2109-0.5537-0.70091-0.80469-1.2324-0.80469-0.1595 0-0.32439 0.023005-0.48438 0.06836-1.0845 0.30047-2.0439 1.0128-2.7461 1.8926-2.8839 3.2279-3.9364 8.6101-0.72266 12.238l0.001953 0.001953c1.8635 2.1028 5.3714 3.7408 9.3418 3.7422 0.87284 0 1.771-0.079985 2.6758-0.25195-0.73965 5.043 0.003221 9.999 2.0449 13.613 1.9033 3.3715 4.8446 5.9182 7.8691 6.8105 1.0026 0.2948 2.0931 0.43555 3.2109 0.43555 2.6797 0 5.5102-0.81379 7.6035-2.291 0.71955-0.50857 1.407-1.2019 1.9434-1.918 0.10281 0.068032 0.20472 0.14001 0.31055 0.20312 0.47603 0.29707 0.96455 0.56291 1.4648 0.79883 0.25247 0.12548 0.49018 0.22432 0.76563 0.34375 0.12737 0.049134 0.24013 0.098485 0.37695 0.14648 0.13758 0.046488 0.27849 0.097789 0.41406 0.13672 1.0755 0.32617 2.1597 0.46559 3.2227 0.52734 1.0685 0.056315 2.107 0.048055 3.1484-0.044922 0.25625-0.030236 0.54463-0.067297 0.80273-0.11719 0.26041-0.04989 0.52021-0.10435 0.77344-0.17578 0.51073-0.13115 1.0044-0.30308 1.4824-0.50781 0.95478-0.408 1.8434-0.94071 2.6191-1.5957 0.7827-0.64532 1.4499-1.4248 1.9453-2.2852 1.0102-1.7978 1.0512-3.8935 0.45313-5.6406-0.59603-1.7589-1.8378-3.2017-3.3594-3.9844-1.5119-0.78406-3.2357-0.94546-4.7129-0.5-0.73689 0.21732-1.4072 0.58658-1.9609 1.0508-0.55922 0.46768-0.99231 1.051-1.2754 1.6699-0.5669 1.2475-0.53217 2.5735-0.16211 3.6289 0.36472 1.0651 1.0868 1.8865 1.8848 2.3223 0.5017 0.28233 1.0679 0.43642 1.6445 0.46484 0.92145 0.044977 1.7999-0.1835 2.5957-0.65039 0.986-0.57868 1.8346-1.9455 1.8574-3.1133 0.00756-0.45101-0.23417-0.87361-0.71485-0.92774-0.03023-0.003515-0.05916-0.003906-0.08789-0.003906-0.55789 0-1.0032 0.58953-1.1426 1.0801-0.16971 0.59743-0.34088 1.3693-0.54883 2.0625-0.05443 0.18595-0.50722 0.31679-0.66407 0.36328-0.26645 0.078992-0.54609 0.11681-0.82226 0.14062-0.46073 0.042331-1.0394-0.003828-1.6133-0.32422-0.56893-0.31143-1.1176-0.91767-1.4062-1.7559-0.2914-0.82707-0.31601-1.8868 0.12695-2.8555 0.22035-0.48083 0.55327-0.93418 0.99805-1.3047 0.44685-0.37417 0.98478-0.67392 1.5898-0.85156 1.2032-0.36435 2.6591-0.24133 3.9316 0.42969 1.267 0.65707 2.3309 1.8933 2.834 3.4004 0.24831 0.75144 0.36913 1.5692 0.31054 2.3887-0.05215 0.81528-0.28844 1.6458-0.69531 2.3633-0.43294 0.74521-1.0109 1.4178-1.709 1.9902-0.69105 0.57796-1.4894 1.0531-2.3477 1.416-0.4309 0.1818-0.87538 0.33616-1.334 0.45117-0.22753 0.063874-0.45952 0.11083-0.69336 0.1543-0.23509 0.043842-0.44701 0.072396-0.69336 0.099609-0.97346 0.083149-1.9871 0.087124-2.9863 0.029297-1.0005-0.060473-2.0085-0.19887-2.957-0.49024-0.11641-0.034015-0.22262-0.077375-0.33789-0.11328-0.1115-0.038173-0.24196-0.093003-0.36328-0.14062-0.20977-0.092976-0.46533-0.20069-0.68946-0.31445-0.46352-0.22072-0.91374-0.47077-1.3516-0.74414-0.10356-0.06463-0.20302-0.1339-0.30469-0.20117 0.65919-1.251 0.9734-2.6809 1.1191-4.0742 0.17122-1.6438-0.04376-3.6243-1.0938-4.9863-0.48019-0.62377-1.2755-0.9361-1.9902-0.48438-0.89163 0.56341-0.86822 1.9531-0.50391 2.8184 0.45933 1.0949 1.7873 2.1081 2.459 3.2676-0.09147 1.0568-0.41622 2.0115-0.85547 2.8379-1.249-0.986-2.3114-2.2244-3.0664-3.6621-0.98736-1.8644-1.4631-4.016-1.5117-6.1934-0.02267-1.0879 0.05202-2.1924 0.24024-3.2637 0.20825-1.0783 0.49248-2.1487 0.89843-3.168 0.40377-1.0172 0.92364-1.9897 1.5703-2.8535 0.64596-0.86317 1.4486-1.6384 2.3027-2.3184 0.86457-0.67306 1.8115-1.2442 2.8086-1.707 1.0006-0.45517 2.0449-0.81737 3.1211-1.0547 2.144-0.48363 4.3809-0.53624 6.5215-0.16211 1.0706 0.18444 2.118 0.46779 3.1172 0.86328 0.25323 0.093733 0.49307 0.20314 0.73242 0.30859 0.23169 0.099402 0.50706 0.24656 0.73047 0.35352 0.47184 0.26835 0.95916 0.50959 1.4199 0.79688 0.50858 0.30539 1.0036 0.62674 1.4941 0.95703-1.4752-0.21846-3.2291-0.15065-5.0762 0.62695 0 0-0.90894 1.0399-2.4688 0.91016 0.32844 0.026456 1.225 0.94086 1.7031 1.0762 1.7575 0.4975 3.392-0.3449 5.0684-0.74023 0.5232-0.12435 1.638-0.36295 2.6934-0.48242 0.6071 0.46904 1.2041 0.94909 1.7793 1.4473 3.2237 2.7747 6.0368 5.8382 8.8809 8.5977 1.4211 1.3974 2.8952 2.6683 4.3828 3.8125 1.4884 1.1476 2.999 2.165 4.5137 3.0352 3.0218 1.752 6.0567 2.9205 8.8516 3.4805 2.79 0.58768 5.3258 0.55392 7.3359 0.23047 0.71187-0.11641 1.3458-0.29906 1.9141-0.50391 0.39757-0.067275 0.78191-0.1627 1.1406-0.29687 4.9014-1.8221 6.6941-4.8723 7.3359-7.1113 0.69736-2.4334 0.22391-4.4167 0.20313-4.5-1.3267-4.7176-4.9921-5.4213-6.7871-5.1348-2.9531 0.022677-5.3496 2.4332-5.3496 5.3926 0 1.3169 0.26961 3.1076 1.5605 4.1484 1.6056 1.2934 4.0578 1.3112 5.7051 0.042969 0.89923-0.69177 1.466-1.6934 1.5527-2.748 0.10885-1.3211-0.35611-2.5677-1.2441-3.3379-0.35414-0.30803-0.85483-0.54184-1.3086-0.64453-1.3849-0.3171-3.4932 0.254-4.1621 1.6152-0.17612 0.35943-0.09108 0.80205 0.37305 1.0449 0.16365 0.085417 0.34228 0.12109 0.51758 0.12109 0.52875 0 1.065-0.2892 1.2988-0.77344 0.15004-0.3069 0.23444-0.66627 0.53125-0.87305 0.30047-0.21014 0.70568-0.22277 1.0547-0.16797 0.37682 0.059717 0.72364 0.21047 1.0137 0.46094 0.63908 0.5537 0.97053 1.4778 0.88867 2.4707-0.06274 0.75148-0.49137 1.5026-1.1484 2.0098-1.2573 0.96722-3.198 0.95165-4.4199-0.03125-0.9707-0.78338-1.1738-2.2452-1.1738-3.3359 0-2.4001 1.954-4.3535 4.3555-4.3535l0.08789-0.007812c0.17083-0.030236 4.2399-0.63834 5.6484 4.3672 0.06727 0.27553 1.6393 7.2009-6.8945 10.371-1.725 0.64044-4.357 0.29493-6.1992 0.027344-5.0734-1.4273-8.7511-4.5243-10.928-9.2266-1.6063-3.4749-1.7759-6.6293-1.7891-6.9609 0.07521-0.46768 0.17152-0.92388 0.28906-1.3555 0.09714-0.35943 0.2121-0.71128 0.33985-1.043 1.3246-3.436 3.9428-4.7664 5.6934-5.2812 0.88119-0.007559 2.8767 0.4266 3.1348 0.47656 0.33487 0.065386 0.66962 0.14782 1.002 0.23438 0.80005 0.68829 1.893 1.8651 2.3711 3.4082-0.05821 0.16743-0.12937 0.32714-0.22461 0.46094-0.84718 1.1983-2.4964 0.52733-3.6738 0.9707-1.2046 0.45309-2.2074 1.3539-2.4766 2.6562 0.13493-0.65223 3.0356-0.48363 3.4922-0.54883 1.0158-0.14702 2.0499-0.76549 2.6445-1.6328-0.05405 0.16441-0.1039 0.30272-0.13867 0.38867-0.36964 0.93252-0.91774 1.5044-1.5762 1.8867-0.96933 0.56066-2.1784 0.70833-3.4219 0.98242-0.47388 0.10469-0.92011 0.26821-1.3184 0.49805-0.60431 0.35112-1.1021 0.85429-1.4316 1.5273-0.50721 1.0394-0.3774 2.2071-0.08789 3.293 0.26079-0.46836 0.59687-0.93239 1-1.2891 0.07332-0.063874 0.14921-0.11953 0.23047-0.16602 0.9818-0.56825 2.5039 0.091693 3.5801-0.12109 0.50238-0.099402 0.97358-0.28399 1.4121-0.53711 1.9997-1.1574 2.7856-3.2073 2.959-5.3965 0.18406-2.3216-0.56346-4.3225-2.0566-6.0488 0.07219 0.018898 0.14032 0.038436 0.21289 0.054688 1.3967 0.32542 2.8995 0.62445 4.3164 0.23047 1.2406-0.34545 2.4844-1.4507 2.8945-2.7031 0.17688-0.53635 0.24683-1.1202 0.1875-1.6836-0.02646-0.22148-0.16551-0.4986-0.16211-0.71094-0.01134 0.61478-0.18068 1.3834-0.48633 1.9219-1.1858 2.0927-4.1121 0.51826-5.7774 0.23438-0.8056-0.1372-1.6484-0.14489-2.4922-0.0625 6.251-4.0688 1.2734-9.1875 1.2734-9.1875-0.83615 0.76811-1.0357 2.121-0.9961 3.1992 0.04195 1.1345 0.80113 2.1741 0.64844 3.3086-0.09865 0.73134-0.49359 1.4049-0.91406 1.9961-0.1852 0.25965-0.39007 0.51646-0.61328 0.75586-1.1088 0.16365-2.2094 0.47466-3.2266 0.85352-1.233 0.30954-3.05 1.0124-4.582 2.5938 0.13039-0.33033 0.20521-0.66542 0.23242-1.002 1.328-1.1386 2.8739-1.9635 4.8125-2.5664 0.58704-0.18255 1.1777-0.3936 1.6953-0.69336 0.45029-0.26003 0.84268-0.58671 1.1348-1.0176 0.36284-0.53428 0.48605-1.2037 0.38672-1.8379-0.08466-0.54539-0.36104-1.1207-0.75195-1.6543-0.78543-1.0748-2.0355-1.9807-3.127-2.1465-0.27893-0.042331-0.5578 4.78e-4 -0.78125 0.12891-0.20182 0.11792-0.35704 0.30573-0.42382 0.57227-0.17197 0.69592 0.49304 1.3664 1.0801 1.6211 0.7702 0.33298 1.9601 0.18244 2.8496 0.47656 0.51209 0.65431 0.74892 1.6821 0.2168 2.4668-0.51205 0.75424-1.4926 1.142-2.4766 1.4473-1.8373 0.57241-3.3399 1.3407-4.6465 2.3711-0.10318-0.6141-0.37498-1.1992-0.80078-1.7051-1.8817-2.2322-4.6108-1.9609-5.9277 0.72852-0.44965 0.91453-0.21254 1.8922-0.50391 2.7734 0.63901-1.9338 3.1041-3.9976 4.8555-1.9688 0.51757 0.59879 0.64965 1.4279 0.67188 2.2168-0.22564-0.71955-0.57449-1.3954-1.0449-1.8555-0.47459-0.46628-1.0949-0.67884-1.7422-0.59766-0.67518 0.085417-1.2914 0.48607-1.6445 1.0703-0.86245 1.4238-0.274 3.1432 0.37305 4.3359 0.3171 0.58772 0.73551 1.1328 1.1387 1.6602 0.69733 0.91174 1.3543 1.7745 1.5527 2.834 0.17348 0.92908-0.23405 2.1285-1.0957 2.3672-0.51968 0.14287-1.2272-0.051189-1.502-0.54102-0.27212-0.48707-0.04105-1.1192-0.24023-1.6348-0.15345-0.39269-0.57571-0.84705-1.0371-0.75195-0.07106 0.015118-0.13547 0.03932-0.19141 0.070312-0.23584 0.1372-0.33486 0.41991-0.30273 0.70508 0.16214 1.453 1.9095 3.2182 3.4492 2.7949 0.15231-0.041575 0.29455-0.10334 0.42578-0.17969 0.56685-0.32882 0.94114-0.94838 1.1035-1.627 0.26948 1.2004 0.7024 2.6559 1.4102 4.1914 1.2177 2.6415 3.4485 5.8741 7.4688 8.0508-4.1784-1.3253-8.1413-3.8068-11.623-7.3164-2.1558-2.1718-4.081-4.6252-5.9434-6.9961-1.5057-1.9172-3.0637-3.9002-4.7422-5.7383-4.1368-4.5281-8.9119-7.7767-14.602-9.9277-0.99571-0.37682-2.0461-0.68235-3.1348-0.92383-0.6474-0.97281-0.70313-1.9883-0.70313-1.9883-0.12964-4.8369-3.3789-5.5625-3.3789-5.5625zm129.34 0s-3.2479 0.72366-3.377 5.5605c0 0-0.05712 1.0155-0.70508 1.9883-1.0866 0.24151-2.1371 0.54904-3.1328 0.92578-5.6897 2.151-10.467 5.3996-14.604 9.9277-1.6784 1.838-3.2365 3.8211-4.7422 5.7383-1.863 2.3709-3.7868 4.8223-5.9434 6.9941-3.4811 3.5096-7.444 5.9931-11.623 7.3184 4.0202-2.1767 6.2504-5.4112 7.4688-8.0527 0.70704-1.5355 1.1409-2.9891 1.4102-4.1895 0.16289 0.67862 0.53666 1.2981 1.1035 1.627 0.1304 0.076346 0.27369 0.13773 0.42578 0.17969 1.5404 0.42323 3.2888-1.342 3.4512-2.7949 0.03401-0.28498-0.06885-0.56968-0.30469-0.70703-0.0567-0.030236-0.1184-0.05595-0.18946-0.070312-0.4614-0.095245-0.88572 0.36129-1.0391 0.75391-0.19994 0.51556 0.03454 1.1477-0.24023 1.6348-0.27477 0.48986-0.98295 0.68396-1.502 0.54102-0.86177-0.23887-1.2691-1.4401-1.0957-2.3691 0.19843-1.0595 0.85609-1.9203 1.5527-2.832 0.40293-0.52732 0.82157-1.0724 1.1387-1.6602 0.64739-1.1927 1.2358-2.9141 0.37304-4.3379-0.35338-0.58424-0.96935-0.98302-1.6445-1.0684-0.64803-0.08126-1.2669 0.13134-1.7422 0.59766-0.47044 0.46004-0.8194 1.1359-1.0449 1.8555 0.0189-0.78894 0.15473-1.6199 0.67188-2.2188 1.7513-2.0288 4.2164 0.034274 4.8555 1.9688-0.2914-0.8812-0.0549-1.857-0.50391-2.7715-1.3177-2.6894-4.046-2.9627-5.9277-0.73047-0.42603 0.50581-0.6967 1.0929-0.80078 1.707-1.3066-1.0304-2.8079-1.7987-4.6445-2.3711-0.98456-0.30539-1.9665-0.69302-2.4785-1.4473-0.53288-0.78474-0.2942-1.8125 0.2168-2.4668 0.88951-0.29405 2.0787-0.14351 2.8496-0.47656 0.58631-0.25474 1.2521-0.92517 1.0801-1.6211-0.06576-0.26646-0.22008-0.45622-0.42187-0.57422-0.22337-0.1285-0.50372-0.16928-0.78125-0.12695-1.0922 0.16592-2.3428 1.0717-3.1289 2.1465-0.39012 0.53359-0.66733 1.1089-0.75195 1.6543-0.09865 0.63417 0.02596 1.3036 0.38672 1.8379 0.29215 0.43087 0.68714 0.75544 1.1367 1.0156 0.51836 0.29972 1.1056 0.5128 1.6934 0.69531 1.9386 0.60295 3.4844 1.4258 4.8125 2.5645 0.03023 0.33638 0.10278 0.67361 0.23242 1.0039-1.5314-1.5813-3.3478-2.2862-4.5801-2.5957-1.0172-0.37886-2.1178-0.68979-3.2266-0.85352-0.22337-0.23924-0.42873-0.4944-0.61328-0.75391-0.42116-0.59116-0.81553-1.2648-0.91407-1.9961-0.15269-1.1345 0.60615-2.1741 0.64844-3.3086 0.0378-1.0783-0.16108-2.4311-0.99609-3.1992 0 0-4.9795 5.1168 1.2715 9.1855-0.84374-0.082772-1.684-0.073122-2.4902 0.064453-1.6653 0.28384-4.5916 1.8563-5.7774-0.23633-0.30463-0.53843-0.47509-1.3051-0.48828-1.9199 0.00378 0.21241-0.1371 0.48957-0.16015 0.71094-0.05897 0.56341 0.00759 1.1472 0.1875 1.6836 0.41083 1.2524 1.6527 2.3556 2.8926 2.7012 1.4168 0.39413 2.9197 0.096902 4.3164-0.22852 0.07219-0.018898 0.14265-0.038436 0.21484-0.054688-1.4938 1.7263-2.2405 3.7252-2.0566 6.0469 0.17348 2.1891 0.95729 4.2391 2.957 5.3965 0.43851 0.25323 0.91313 0.43786 1.4141 0.53711 1.0762 0.21316 2.5976-0.4452 3.5801 0.12305 0.08125 0.046488 0.15601 0.10214 0.23046 0.16602 0.40339 0.35679 0.73715 0.8207 0.99805 1.2891 0.29027-1.0859 0.41989-2.2555-0.08789-3.2949-0.32957-0.67302-0.82729-1.1762-1.4316-1.5273-0.39882-0.2298-0.84181-0.39328-1.3164-0.49805-1.2434-0.27402-2.4552-0.4218-3.4238-0.98242-0.65918-0.38234-1.2063-0.95416-1.5762-1.8867-0.03401-0.086173-0.085-0.2222-0.13867-0.38672 0.59388 0.86733 1.63 1.4838 2.6465 1.6309 0.45656 0.065386 3.3569-0.10149 3.4922 0.55078-0.2691-1.3024-1.2713-2.2032-2.4766-2.6562-1.1768-0.44338-2.8278 0.22752-3.6758-0.9707-0.09449-0.1338-0.16521-0.29388-0.22266-0.46094 0.47804-1.5431 1.5698-2.7218 2.3691-3.4102 0.33298-0.086929 0.66683-0.16937 1.002-0.23438 0.25814-0.04989 2.2548-0.4856 3.1367-0.47656 1.7499 0.51485 4.3675 1.8472 5.6914 5.2832 0.12851 0.33146 0.24504 0.68162 0.3418 1.041 0.1183 0.43158 0.2146 0.88783 0.28906 1.3555-0.01134 0.33146-0.18415 3.488-1.791 6.9629-2.1766 4.7023-5.8535 7.7973-10.928 9.2246-1.8415 0.26797-4.471 0.61513-6.1953-0.025391-8.5338-3.1703-6.9657-10.098-6.8984-10.373 1.4086-5.0055 5.4804-4.3937 5.6504-4.3652l0.08789 0.005859c2.4014 0 4.3535 1.9535 4.3535 4.3535 0 1.0908-0.20385 2.5545-1.1738 3.3379-1.2219 0.98321-3.1613 0.99881-4.4199 0.03125-0.65707-0.50721-1.086-1.2603-1.1484-2.0117-0.08164-0.99292 0.25245-1.915 0.89063-2.4688 0.29026-0.25058 0.63621-0.40325 1.0137-0.46289 0.34809-0.054803 0.7523-0.042173 1.0527 0.16797 0.29745 0.20674 0.38327 0.56833 0.53321 0.875 0.23281 0.48431 0.76939 0.77148 1.2988 0.77148 0.175 0 0.35126-0.037566 0.51563-0.12109 0.46424-0.24302 0.55146-0.68354 0.375-1.043-0.66886-1.3613-2.7779-1.9343-4.1621-1.6172-0.45521 0.1028-0.95476 0.33631-1.3086 0.64453-0.88886 0.77019-1.3524 2.0187-1.2441 3.3398 0.08656 1.0547 0.65156 2.0563 1.5508 2.748 1.6472 1.2684 4.1002 1.2486 5.7051-0.044922 1.2906-1.0408 1.5625-2.8295 1.5625-4.1465 0-2.9593-2.3978-5.369-5.3516-5.3926-1.795-0.28649-5.4585 0.41528-6.7852 5.1328-0.02267 0.08315-0.49603 2.0686 0.20118 4.502 0.6418 2.2391 2.4352 5.2893 7.3359 7.1113 0.35944 0.1338 0.74238 0.2296 1.1406 0.29687 0.56829 0.20485 1.2048 0.38539 1.916 0.50195 2.0101 0.32315 4.5452 0.35725 7.3359-0.23047 2.7942-0.55994 5.8284-1.7285 8.8516-3.4805 1.5133-0.87008 3.0241-1.8855 4.5117-3.0332 1.4883-1.1442 2.9618-2.417 4.3828-3.8145 2.8434-2.7595 5.6572-5.8229 8.8809-8.5977 0.5752-0.49822 1.1741-0.97627 1.7812-1.4453 1.0561 0.11943 2.1676 0.35612 2.6914 0.48047 1.6764 0.39553 3.3121 1.2377 5.0703 0.74023 0.47804-0.13531 1.375-1.0478 1.7031-1.0742-1.5591 0.12964-2.4688-0.91016-2.4688-0.91016-1.8463-0.77783-3.6023-0.84552-5.0781-0.62695 0.49059-0.33033 0.98745-0.65172 1.4961-0.95703 0.46068-0.28724 0.9474-0.53029 1.4199-0.79883 0.22261-0.10696 0.49871-0.25449 0.73047-0.35352 0.23886-0.10545 0.47652-0.21291 0.73047-0.30664 0.99912-0.39549 2.0478-0.68068 3.1191-0.86523 2.1398-0.37417 4.3775-0.31934 6.5215 0.16406 1.0762 0.23735 2.1191 0.59952 3.1211 1.0547 0.99496 0.4628 1.9441 1.034 2.8086 1.707 0.85346 0.67998 1.6561 1.4552 2.3027 2.3184 0.64668 0.86385 1.1672 1.8363 1.5703 2.8535 0.40584 1.0193 0.6903 2.0878 0.89843 3.166 0.18747 1.0713 0.26292 2.1757 0.24024 3.2637-0.04838 2.1773-0.52436 4.3309-1.5117 6.1953-0.75489 1.4377-1.8187 2.6761-3.0684 3.6621-0.43918-0.82636-0.76389-1.7811-0.85547-2.8379 0.67162-1.1594 1.9997-2.1746 2.459-3.2695 0.36472-0.86525 0.38982-2.2549-0.50196-2.8184-0.71535-0.45173-1.5094-0.1394-1.9902 0.48438-1.0498 1.362-1.2671 3.3426-1.0957 4.9863 0.14589 1.3933 0.46122 2.8251 1.1211 4.0762-0.1028 0.067275-0.20233 0.13692-0.30664 0.20117-0.43782 0.27326-0.88808 0.52154-1.3516 0.74219-0.22413 0.11376-0.47721 0.22148-0.6875 0.31445-0.12284 0.048-0.25299 0.1044-0.36524 0.14258-0.11527 0.037795-0.22154 0.078132-0.33984 0.11328-0.94711 0.2914-1.9538 0.42988-2.9551 0.49024-0.99844 0.058204-2.0135 0.052277-2.9863-0.03125-0.24718-0.026457-0.45816-0.053814-0.69336-0.097656-0.23395-0.043843-0.46448-0.092376-0.6914-0.15625-0.45933-0.11528-0.90312-0.26926-1.334-0.45117-0.85901-0.36284-1.6585-0.83606-2.3496-1.4141-0.698-0.57241-1.2761-1.245-1.709-1.9902-0.40755-0.71747-0.64259-1.55-0.69531-2.3652-0.05897-0.81944 0.06185-1.6353 0.31054-2.3867 0.50306-1.5071 1.567-2.7433 2.834-3.4004 1.2725-0.67094 2.7304-0.794 3.9336-0.42969 0.60435 0.17764 1.1418 0.47562 1.5879 0.84961 0.44549 0.37039 0.77867 0.82581 1 1.3066 0.44338 0.96862 0.4158 2.0284 0.125 2.8555-0.28838 0.83819-0.83796 1.4443-1.4062 1.7559-0.57377 0.3205-1.1532 0.36655-1.6133 0.32422-0.27591-0.022677-0.55581-0.061255-0.82227-0.14062-0.15609-0.046488-0.60994-0.17928-0.66406-0.36523-0.20712-0.69316-0.37807-1.4631-0.54883-2.0605-0.13946-0.49054-0.58348-1.0801-1.1406-1.0801-0.03024 0-0.06074 8.07e-4 -0.08985 0.003906-0.48079 0.054047-0.72124 0.47672-0.71289 0.92774 0.02646 1.1678 0.86951 2.5346 1.8555 3.1133 0.79654 0.46696 1.6755 0.69552 2.5977 0.65039 0.57592-0.030236 1.1422-0.18251 1.6445-0.46484 0.79725-0.43574 1.5172-1.2572 1.8828-2.3223 0.36964-1.0554 0.40426-2.3833-0.16211-3.6309-0.28346-0.61894-0.71541-1.2003-1.2754-1.668-0.5537-0.4642-1.2234-0.83361-1.9609-1.0508-1.4758-0.44546-3.2009-0.28613-4.7129 0.49805-1.5216 0.78266-2.7627 2.2254-3.3594 3.9844-0.59743 1.7471-0.5571 3.8448 0.45312 5.6426 0.49475 0.86037 1.1626 1.6399 1.9453 2.2852 0.77578 0.65503 1.6663 1.1858 2.6211 1.5938 0.47736 0.20485 0.96978 0.37873 1.4805 0.50977 0.25398 0.071433 0.51322 0.12356 0.77344 0.17383 0.25814 0.04989 0.54866 0.088841 0.80468 0.11719 1.0415 0.092977 2.0787 0.10086 3.1465 0.044922 1.063-0.061606 2.1484-0.20106 3.2246-0.52734 0.13531-0.038929 0.27555-0.09023 0.41211-0.13672 0.13757-0.048 0.25109-0.095398 0.37695-0.14453 0.27591-0.11943 0.51232-0.21789 0.76563-0.34375 0.49954-0.23584 0.98761-0.50183 1.4629-0.79883 0.10545-0.063118 0.21045-0.13509 0.3125-0.20312 0.53775 0.71607 1.2219 1.4094 1.9414 1.918 2.0941 1.4772 4.9245 2.291 7.6035 2.291 1.1178 0 2.2109-0.14281 3.2129-0.4375 3.0245-0.89231 5.9652-3.4371 7.8691-6.8086 2.0413-3.6143 2.7846-8.5722 2.0449-13.615 0.90622 0.17197 1.8029 0.25391 2.6758 0.25391 3.971-0.001361 7.4808-1.6403 9.3438-3.7441 3.2154-3.6282 2.1644-9.0117-0.7207-12.24l-0.00195 0.001953c-0.70077-0.87984-1.6616-1.5921-2.7461-1.8926-0.16063-0.044977-0.32401-0.06836-0.48437-0.06836-0.53148 0-1.0195 0.2511-1.2305 0.80469-0.34167 0.89994 0.43616 1.8978 1.1758 2.3301 1.0575 0.61754 2.8694 0.55187 4.0039 1.252 1.4425 2.858 1.497 6.5592-0.77539 9.123-2.7324 3.0835-7.7148 3.8447-11.439 3.0703-1.3808-6.6097-6.1127-10.64-9.9414-12.883-6.1073-3.5762-14.133-5.002-20.984-3.957 0.53564-0.39413 1.0163-0.85719 1.3965-1.4199 1.1684-1.7242 0.96679-3.8281 0.96679-5.8105zm-74.602 1.6367c-0.74869 0.022677-1.4502 0.24534-1.7715 0.97656-0.30274 0.68689-0.19896 1.721 0.51953 2.1387 0.83542 0.48155 1.8691-0.047729 2.7656 0.10156 0.84998 0.14022 1.5895 0.62958 2.0801 1.3359l0.10352 0.24805c-1.122 0.88052-1.752 1.6797-1.752 1.6797s7.3496-0.24033 7.3496 18.131l0.63867 0.66992 0.63672-0.66992c0-18.371 7.3496-18.131 7.3496-18.131-0.60642-0.60714-1.2046-1.1291-1.793-1.5801l0.14649-0.34766c0.49058-0.70636 1.2282-1.1958 2.0781-1.3359 0.89439-0.14929 1.9342 0.37999 2.7676-0.10156 0.71829-0.41734 0.81975-1.4498 0.51953-2.1367v-0.001953c-0.32159-0.73003-1.0228-0.95439-1.7695-0.97656-3.4964-0.1028-4.6943 3.1391-4.9629 4.0605-4.1215-2.5215-7.6492-1.5138-9.9785-0.10742-0.32466-1.0422-1.557-4.051-4.9277-3.9531zm-13.135 5.4512c0.05977-0.00789 0.12489-0.008063 0.19141 0.001953 0.72646 0.11036 1.5779 0.71261 2.1406 1.3184-0.21846-0.026457-0.44032-0.04398-0.65821-0.0625-0.48363-0.037795-0.94035-0.073172-1.2422-0.20508-0.37115-0.16025-0.76725-0.57496-0.69922-0.84766 0.01511-0.074835 0.05161-0.12224 0.11133-0.15625 0.04251-0.024189 0.09648-0.040939 0.15624-0.048828zm46.137 0c0.05977 0.007682 0.11216 0.024374 0.1543 0.048828 0.05972 0.034015 0.09205 0.081415 0.11133 0.15625 0.06727 0.2725-0.32777 0.68737-0.69922 0.84766-0.30274 0.13191-0.75928 0.16842-1.2422 0.20508-0.21845 0.018898-0.43768 0.033398-0.65625 0.0625 0.56202-0.60574 1.4129-1.208 2.1387-1.3184 0.0669-0.009449 0.1336-0.009635 0.19336-0.001953zm-90.051 0.83984c3.2626-0.013277 6.4182 0.48238 9.1602 1.5195 2.3841 0.90134 4.6024 2.0011 6.6777 3.3125-0.39632-0.19162-0.79895-0.38002-1.2188-0.5625-5.3864-2.3494-13.804-4.2438-23.309 0.064453-2.8836 1.3065-5.3147 3.4877-7.6641 5.5957-2.79 2.5041-5.4302 4.8674-8.7656 5.918 1.4398-5.9415 5.7956-9.6161 9.3398-11.691 4.6081-2.6996 10.342-4.1341 15.779-4.1562zm133.96 0c5.4374 0.022129 11.171 1.4567 15.779 4.1562 3.5456 2.0753 7.9008 5.7499 9.3398 11.691-3.3354-1.0505-5.9749-3.4138-8.7656-5.918-2.3487-2.108-4.7796-4.2892-7.6641-5.5957-9.5045-4.3082-17.921-2.4137-23.307-0.064453-0.42048 0.18255-0.82394 0.37092-1.2188 0.5625 2.0746-1.3114 4.2917-2.4112 6.6758-3.3125 2.742-1.0372 5.8977-1.5328 9.1602-1.5195zm34.516 0.45508c0.07899 0 0.16105 0.012479 0.24609 0.035156 0.94711 0.2623 1.9833 1.2013 2.6328 2.0957-0.28648-0.070677-0.57727-0.12854-0.86523-0.1875-0.63628-0.1285-1.2382-0.25-1.6191-0.47266-0.46764-0.27288-0.927-0.88903-0.79102-1.2422 0.02646-0.068787 0.08755-0.22852 0.39649-0.22852zm-202.99 0.001953c0.30916 0 0.36936 0.15973 0.39453 0.22852 0.13531 0.35301-0.32171 0.9695-0.79102 1.2422-0.38098 0.22261-0.98162 0.34411-1.6172 0.47266-0.28838 0.058961-0.57867 0.11682-0.86524 0.1875v-0.001953c0.65084-0.89439 1.6837-1.8334 2.6309-2.0957 0.084283-0.022677 0.16868-0.033203 0.24805-0.033203zm37.516 2.3438c4.4347 0.011104 8.2798 1.1479 11.201 2.4219 5.5307 2.4119 8.9994 5.7951 9.168 5.9609 1.65 1.8075 3.1931 3.7721 4.6855 5.6719 1.8811 2.3945 3.8248 4.8692 6.0215 7.084 4.6752 4.7113 10.203 7.6459 15.98 8.4883l0.07031 0.011718c0.51832 0.075591 1.0821 0.1574 1.6719 0.22656-1.4911 0.002154-3.1477-0.15344-4.9219-0.58008-1.3371-0.31294-2.7295-0.76755-4.1484-1.3691-1.4217-0.59463-2.8739-1.3288-4.3262-2.2031-2.9052-1.7499-5.8335-4.0189-8.6055-6.7617-2.8087-2.738-5.6221-5.8214-8.918-8.6738-0.15005-0.13115-0.30884-0.25888-0.46289-0.38867 0.03024 0.015119 0.0649 0.031379 0.08985 0.046876 0 0-0.05364-0.038318-0.1504-0.097657-1.4974-1.2614-3.1065-2.4504-4.8398-3.4961-0.47803-0.30047-0.9858-0.55684-1.4805-0.83789-0.27931-0.13682-0.49255-0.25412-0.77148-0.37695-0.27062-0.12208-0.54193-0.2429-0.8125-0.3457-1.0824-0.42879-2.2144-0.74587-3.3711-0.93945-2.3105-0.39621-4.7134-0.33193-7.0254 0.19531-1.1567 0.2589-2.2846 0.65302-3.3691 1.1484-1.0796 0.50653-2.1071 1.1295-3.0508 1.8691-0.93675 0.75005-1.7982 1.5831-2.5254 2.5566-0.7251 0.97485-1.2896 2.0424-1.7246 3.1484-0.43789 1.1067-0.73735 2.2524-0.95312 3.4062-0.20107 1.1706-0.27558 2.3413-0.2461 3.5098 0.06123 2.3314 0.582 4.6689 1.6797 6.7207 0.85482 1.6195 2.0775 3.0091 3.4902 4.0957-0.52739 0.71883-1.1215 1.2918-1.6738 1.6797-2.7248 1.9241-6.8051 2.6236-9.9219 1.707-2.7713-0.81736-5.4856-3.1792-7.2598-6.3203-1.9123-3.3909-2.6278-8.2675-1.9082-13.047 0.015119-0.10545 0.036861-0.20774 0.052735-0.31055 0.10961-0.030236 0.2189-0.058537 0.32812-0.091796 3.658-1.0845 6.5586-3.6876 9.3652-6.207 2.2925-2.0545 4.6638-4.1812 7.4004-5.4219 4.007-1.8159 7.8125-2.4891 11.262-2.4805zm127.96 0c3.4492-0.008641 7.255 0.66263 11.262 2.4785 2.7373 1.2406 5.1066 3.3674 7.3984 5.4219 2.8066 2.5194 5.7105 5.1245 9.3672 6.209 0.11036 0.034015 0.21852 0.059607 0.32812 0.089843 0.01512 0.1028 0.038 0.20472 0.05274 0.31055 0.7195 4.7793 0.00302 9.656-1.9082 13.047-1.7742 3.1411-4.4885 5.5049-7.2598 6.3223-3.1162 0.91661-7.1971 0.21713-9.9219-1.707-0.55162-0.38786-1.1465-0.96086-1.6738-1.6797 1.4128-1.0866 2.6367-2.4763 3.4922-4.0957 1.0976-2.0518 1.6174-4.3913 1.6777-6.7227 0.03023-1.1684-0.0454-2.3373-0.2461-3.5078-0.21656-1.1539-0.51403-2.2995-0.95117-3.4062-0.43646-1.106-1.0014-2.1755-1.7266-3.1504-0.72711-0.97349-1.5867-1.8046-2.5234-2.5547-0.94367-0.73965-1.9718-1.3626-3.0508-1.8691-1.0845-0.49542-2.2164-0.88962-3.373-1.1484-2.3119-0.52732-4.7129-0.59144-7.0234-0.19531-1.156 0.19351-2.2874 0.50867-3.3692 0.9375-0.27061 0.1028-0.54256 0.22558-0.8125 0.34766-0.27968 0.12283-0.49311 0.23818-0.77343 0.375-0.49406 0.2812-1.0038 0.53937-1.4805 0.83984-1.7339 1.0456-3.3412 2.2346-4.8379 3.4961-0.09789 0.059717-0.15235 0.095703-0.15235 0.095703 0.02646-0.015118 0.06075-0.029425 0.08985-0.044922-0.15383 0.12964-0.31292 0.25546-0.46289 0.38672-3.2965 2.8524-6.1099 5.9359-8.918 8.6738-2.7727 2.7428-5.7003 5.0138-8.6055 6.7637-1.453 0.87428-2.9051 1.6085-4.3262 2.2031-1.419 0.60159-2.8114 1.0562-4.1484 1.3691-1.7735 0.42671-3.4315 0.58216-4.9219 0.58008 0.58904-0.069543 1.1536-0.15097 1.6719-0.22656l0.07227-0.011718c5.7771-0.84234 11.302-3.777 15.979-8.4883 2.1968-2.2148 4.1404-4.6914 6.0215-7.0859 1.4932-1.8998 3.0356-3.8624 4.6855-5.6699 0.16857-0.16592 3.6379-3.5511 9.168-5.9629 2.9218-1.2739 6.7665-2.4088 11.201-2.4199zm-95.021 5.0352c0.32151 0.03254 0.62207 0.17516 0.86719 0.41602 0.868 0.85138 1.2733 2.6531 1.0957 3.7383-0.07219 0.43087-0.20718 0.85797-0.33984 1.2715h-0.00196c-0.16667 0.52528-0.33871 1.0671-0.375 1.6152-0.01512 0.10356-0.03692 0.20466-0.05468 0.30859l-0.00391 0.058594c5.7e-4 0.026457 0.00467 0.17423 0.02734 0.41797-0.33297-0.65363-0.78458-1.243-1.2266-1.8203-0.4046-0.5308-0.78923-1.0323-1.082-1.5742-0.56413-1.0394-1.0874-2.5199-0.38867-3.6738 0.24945-0.41008 0.68305-0.69423 1.1562-0.75391 0.11067-0.014079 0.219-0.014753 0.32617-0.003906zm62.082 0c0.10722-0.010843 0.21727-0.010144 0.32812 0.003906 0.47252 0.059717 0.90579 0.34386 1.1563 0.75391 0.6994 1.1539 0.17445 2.6344-0.39063 3.6738-0.29254 0.54191-0.67751 1.0434-1.082 1.5742-0.44198 0.57728-0.8916 1.1667-1.2246 1.8203 0.02268-0.2434 0.02161-0.39023 0.02539-0.41797l-0.00391-0.058594c-0.01511-0.10394-0.03692-0.20346-0.05468-0.30664-0.0378-0.54814-0.20833-1.0919-0.375-1.6172-0.13191-0.41352-0.26684-0.84058-0.33789-1.2715h-0.00391c-0.17839-1.0852 0.22886-2.8869 1.0977-3.7383 0.24491-0.24094 0.54356-0.38349 0.86523-0.41602zm-48.141 8.834c-0.42191 0.95403-1.1078 1.7733-1.9141 2.2402-0.32239 0.18595-0.65906 0.31662-1.0039 0.38476-0.23811 0.048378-0.66721-0.00365-1.0801-0.050781-0.61822-0.072945-1.344-0.15761-2.0566 0 0.19238-0.30198 0.44861-0.54231 0.77539-0.73242 0.26872-0.1542 0.58375-0.27175 0.93554-0.34961 0.24605-0.054047 0.48952-0.10397 0.73243-0.15234 1.0366-0.20901 2.1113-0.42274 3.0723-0.97852 0.19049-0.11112 0.37004-0.23056 0.53907-0.36133zm34.197 0c0.1697 0.13039 0.34947 0.24826 0.54102 0.35938 0.95958 0.55578 2.0337 0.77161 3.0703 0.98047 0.24302 0.048378 0.48878 0.098297 0.73437 0.15234 0.35226 0.077858 0.66698 0.19578 0.93555 0.34961 0.32617 0.19011 0.5832 0.43059 0.77539 0.73242-0.71259-0.15761-1.4397-0.072945-2.0586 0-0.41288 0.047244-0.84013 0.099537-1.0781 0.050781-0.34507-0.068031-0.68248-0.19874-1.0059-0.38476-0.80625-0.46696-1.4914-1.2862-1.9141-2.2402zm-50.918 0.2793c0.18255-0.037795 0.4446 0.23339 0.54102 0.48242 0.07823 0.20258 0.09142 0.50237 0.10351 0.82227 0.00378 0.14287 0.01223 0.28872 0.02735 0.43359h-0.00391c-0.38389-0.38438-0.75846-0.96113-0.81055-1.4434-0.01133-0.10394 0.00619-0.23004 0.08594-0.27539 0.01512-0.007559 0.03396-0.015751 0.05664-0.019531zm67.639 0c0.02646 0.00378 0.0419 0.010019 0.05664 0.017578 0.07748 0.044977 0.09999 0.17108 0.0879 0.27539-0.05254 0.48223-0.42809 1.0589-0.8125 1.4434 0.01133-0.14513 0.01405-0.29058 0.02539-0.43359l-0.00196 0.001954c0.01134-0.31975 0.02604-0.62164 0.10352-0.82422 0.09675-0.24907 0.35767-0.51796 0.54101-0.48047zm-44 2.1875c-0.07407 0.16101-0.13717 0.32642-0.19726 0.48047-0.12548 0.32466-0.24582 0.62963-0.4043 0.79688-0.15156 0.15609-0.44959 0.31445-0.72851 0.31445-0.09789 0-0.18613-0.022752-0.26172-0.060547-0.15685-0.080504-0.1982-0.17984-0.13282-0.3125 0.22337-0.45517 0.94679-0.96133 1.7246-1.2188zm20.363 0c0.77787 0.25739 1.5012 0.76354 1.7246 1.2188 0.06501 0.13266 0.02669 0.232-0.13281 0.3125-0.07634 0.038929-0.16572 0.060547-0.26172 0.060547-0.28044 0-0.57925-0.15836-0.73047-0.31445-0.15874-0.16743-0.27678-0.47214-0.40234-0.79688-0.06123-0.1542-0.12394-0.31965-0.19727-0.48047zm-67.453 7.0723c0.00756 0 0.01601 0.001273 0.02734 0.001953 0.20826 0.022677 0.22027 0.28196 0.21875 0.36133-0.01133 0.72023-0.57223 1.6569-1.0898 2.1738-0.08428 0.08315-0.19326 0.16433-0.31836 0.24219h-0.00195c0.12283-0.4038 0.22897-0.83356 0.33594-1.252 0.0771-0.3069 0.15242-0.5969 0.2246-0.85156 0.08882-0.31219 0.37112-0.67578 0.60352-0.67578zm114.52 0c0.00756-6.81e-4 0.01601 0 0.02735 0 0.23168 0 0.5147 0.36359 0.60351 0.67578 0.07182 0.25474 0.14631 0.54489 0.22266 0.85156 0.10696 0.41839 0.21543 0.84811 0.33789 1.252-0.12472-0.077859-0.23445-0.16061-0.31836-0.24414-0.51805-0.51712-1.0766-1.4521-1.0918-2.1719-0.00106-0.078992 0.01087-0.33947 0.21874-0.36328zm-56.627 4.9805-3.1738 6.666 3.1738 6.6641 3.1738-6.6641-3.1738-6.666zm-18.449 9.9492-105.94 1.3965 105.94 1.3965v-2.793zm35.662 0v2.793l105.94-1.3965-105.94-1.3965zm-80.307 14.744c-0.22702 0.011338-0.45266 0.050983-0.67969 0.11914-0.36323 0.090835-0.77251 0.2935-1.2266 0.61133-0.49948 0.27243-0.93168 0.72762-1.2949 1.3633-0.22702 0.36324-0.45266 0.79349-0.67969 1.293-0.22712 0.45405-0.38585 1.0221-0.47656 1.7031 0 0.090809-0.02301 0.36431-0.06836 0.81836-0.04535 0.45407-0.04535 1.0201 0 1.7012 0.04541 0.63567 0.20413 1.3184 0.47656 2.0449 0.22703 0.68107 0.61335 1.316 1.1582 1.9062 0.54485 0.54483 1.1109 0.90817 1.7012 1.0898-0.18152 2.4519-0.34025 5.0853-0.47656 7.9004-0.11944 2.4268-0.17662 4.7713-0.19141 7.0586-0.12567 0.30564-0.25362 0.58124-0.37695 0.91015-0.54486 1.453-1.1128 2.8605-1.7031 4.2227-0.54486 1.3621-1.1358 2.5421-1.7715 3.541-0.59029 0.9988-1.2252 1.5668-1.9062 1.7031-0.54486 0.09081-0.93118-0.40833-1.1582-1.498-0.22707-1.0897-0.36285-2.4054-0.4082-3.9492 0-1.5892 0.06876-3.2243 0.20508-4.9043 0.13611-1.7254 0.27189-3.1559 0.4082-4.291 0.13622-0.81728-0.09138-1.567-0.68164-2.248-0.31786-0.31776-0.65825-0.54533-1.0215-0.68164-0.18162-0.09096-0.38626-0.15777-0.61328-0.20312-0.59037-0.090809-0.93078 0.18072-1.0215 0.81641-0.15715 1.8543-0.24069 3.5451-0.28906 5.1602-0.63973 0.88621-1.3846 1.8857-2.3438 3.1113-1.28 1.6-2.8808 3.2523-4.8008 4.959-1.1022 0.96-2.2923 1.9018-3.5723 2.8262-1.28 0.92444-2.5962 1.637-3.9473 2.1348-1.3511 0.46214-2.7208 0.63979-4.1074 0.5332-1.3867-0.14221-2.72-0.76495-4-1.8672-0.12657-0.10759-0.24348-0.22133-0.36133-0.33399-1.0513-1.1032-1.7168-2.4311-1.9863-3.9883-0.3911-1.9556-0.089303-4.053 0.90625-6.293 0.42666-1.0667 0.99593-2.0982 1.707-3.0938 0.71113-1.0311 1.5287-2.0072 2.4531-2.9316 0.5689-0.56889 1.1553-1.0847 1.7598-1.5469 0.64-0.49779 1.2991-0.96006 1.9746-1.3867 0.78224 0.60452 1.6341 0.95982 2.5586 1.0664 0.96 0.071055 1.9037 0.088262 2.8281 0.052734 1.4933-0.071105 2.7369-0.37291 3.7324-0.90625 0.96-0.49776 1.4395-1.1033 1.4395-1.8145-0.047146-0.40076-0.24767-0.73209-0.57617-1.0078-0.19733-0.25444-0.47881-0.47044-0.86133-0.64258-0.74668-0.35555-1.8317-0.5332-3.2539-0.5332-1.3985 0.034108-2.7968 0.23437-4.1953 0.5957-0.04167-0.13515-0.08333-0.22899-0.125-0.4375-0.071307-0.78221-0.019686-1.6533 0.1582-2.6133 0.21332-0.96 0.55144-1.8845 1.0137-2.7734l0.74609-1.1738c0.2844 0.071055 0.55184 0.14184 0.80078 0.21289 0.2489 0.071307 0.51633 0.14379 0.80078 0.21484 1.28 0.35555 2.5235 0.67454 3.7324 0.95898 1.2089 0.24894 2.3282 0.35584 3.3594 0.32031 1.4578-0.071106 2.6135-0.58688 3.4668-1.5469 0.78221-0.96 1.1738-2.0622 1.1738-3.3066 0-1.1733-0.3553-2.2049-1.0664-3.0938-0.07501-0.08806-0.16434-0.15214-0.24414-0.23242-0.00797-0.010118-0.01342-0.021168-0.02148-0.03125-0.81779-0.96002-1.92-1.4586-3.3066-1.4941-0.46221 0-0.94166 0.036367-1.4395 0.10742-0.49776 0.035779-1.0135 0.14072-1.5469 0.31836-1.0311 0.2489-2.0626 0.64049-3.0938 1.1738-1.0311 0.53334-2.0091 1.1733-2.9336 1.9199-0.56887 0.42666-1.1018 0.88893-1.5996 1.3867-0.46221 0.49776-0.90535 1.0135-1.332 1.5469-1.8133-0.39111-3.6452-0.74641-5.4941-1.0664-1.8133-0.32013-3.5726-0.55125-5.2793-0.69336-4.1956-0.24887-7.3608 0.32037-9.4941 1.707-0.74666 0.49776-1.4229 1.1549-2.0273 1.9727-0.60445 0.78221-1.0667 1.6361-1.3867 2.5605-0.10683 0.32-0.21373 0.65812-0.32031 1.0137-0.10658 0.35558-0.1582 0.67456-0.1582 0.95898 0 0.24879 0.07078 0.46274 0.21289 0.64062 0.052668 0.065777 0.12512 0.11483 0.20703 0.15625 0.021414 0.035308 0.032323 0.07649 0.058593 0.10938 0.14224 0.17764 0.39054 0.26562 0.74609 0.26562 0.21324 0 0.42721-0.070781 0.64062-0.21289 0.24894-0.17779 0.37305-0.44523 0.37305-0.80078 0-0.30658-0.13559-0.54481-0.39648-0.7207-0.070589-0.11098-0.16489-0.20981-0.29492-0.29102-0.13985-0.11977-0.28643-0.18234-0.4375-0.20117 0.65438-2.1162 1.7549-3.69 3.3145-4.707 2.0978-1.3512 5.156-1.9013 9.1738-1.6523 1.6711 0.10668 3.3789 0.31867 5.1211 0.63867 1.6528 0.2975 3.3042 0.63127 4.957 0.99024-0.14102 0.23155-0.28266 0.46481-0.42383 0.71875-0.17766 0.28445-0.35531 0.56907-0.5332 0.85352-0.99563 1.9556-1.3853 3.7875-1.1719 5.4941 0.035553 0.7111 0.2667 1.4217 0.69336 2.1328-1.0667 0.49776-2.0982 1.1014-3.0938 1.8125-0.96 0.71113-1.8845 1.4943-2.7734 2.3477-0.92445 0.92445-1.7612 1.9197-2.5078 2.9863-0.14656 0.21252-0.2644 0.4329-0.40039 0.64844-0.14351-0.17993-0.2961-0.35666-0.46875-0.5293-0.54289-0.62639-1.2747-1.1695-2.1934-1.6289-0.91873-0.45929-2.0672-0.71013-3.4453-0.75195-1.2946-0.083452-2.526 0.020166-3.6953 0.3125-1.0022 0.25056-2.0263 0.69001-3.0703 1.3164-1.044 0.62639-1.8568 1.5863-2.4414 2.8809-0.50112 0.04182-1.065 0.12477-1.6914 0.25-0.54289 0.0834-1.1897 0.20989-1.9414 0.37695-0.70992 0.1252-1.4832 0.29112-2.3184 0.5-0.96048 0.20891-1.9411 0.439-2.9434 0.68945-0.96048 0.20871-1.9223 0.41807-2.8828 0.62696-1.8374 0.37596-3.7572 0.68899-5.7617 0.93945-0.96048 0.12548-1.9223 0.2291-2.8828 0.3125-0.91873 0.0834-1.8372 0.14762-2.7559 0.18945h-1.252c-1.7539-0.04175-3.2362-0.23037-4.4473-0.56445-1.211-0.37584-2.1936-0.83604-2.9453-1.3789-0.70992-0.58464-1.2304-1.2522-1.5645-2.0039-0.33401-0.79345-0.52263-1.6289-0.56445-2.5059-0.041827-1.0858 0.020445-1.942 0.1875-2.5684 0.20891-0.62642 0.439-1.1054 0.68945-1.4395 0.083527-0.083452 0.27214-0.23057 0.56445-0.43945 0.29233-0.20888 0.68834-0.27115 1.1895-0.1875 0.45936 0.1252 0.83464 0.29112 1.127 0.5 0.29231 0.2087 0.5224 0.41807 0.68945 0.62695 0.16706 0.25056 0.27067 0.52212 0.3125 0.81445 0.041827 0.29241 0.041827 0.564 0 0.81445-0.041827 0.20891-0.1041 0.439-0.1875 0.68945-0.041575 0.25043-0.16612 0.41635-0.375 0.5-0.083653 0.04183-0.2099 0.0625-0.37695 0.0625s-0.25-0.10361-0.25-0.3125c-0.041827-0.083653-0.041827-0.18727 0-0.3125 0.083402-0.54287 4.57e-4 -0.89935-0.25-1.0664-0.25056-0.16706-0.56359-0.2084-0.93945-0.125-0.12548 0.041827-0.23105 0.12477-0.31445 0.25-0.083402 0.083401-0.14567 0.2099-0.1875 0.37695-0.041575 0.12538-0.020902 0.31204 0.0625 0.5625 0.041575 0.12538 0.10385 0.314 0.1875 0.56445 0.083628 0.20878 0.2515 0.3974 0.50195 0.56446 0.29231 0.20888 0.58462 0.3125 0.87695 0.3125 0.29223-0.04183 0.54307-0.1041 0.75195-0.1875 0.50109-0.20881 0.8349-0.48037 1.002-0.81446 0.20863-0.37583 0.33317-0.73036 0.375-1.0644 0.041575-0.41759 0.020902-0.83629-0.0625-1.2539-0.12538-0.41759-0.314-0.81362-0.56445-1.1895-0.20881-0.33419-0.52186-0.6265-0.93945-0.87695-0.41761-0.29218-0.96076-0.4808-1.6289-0.56445-1.1693-0.083527-2.1914 0.063617-3.0684 0.43945-0.75167 0.33408-1.4193 0.91871-2.0039 1.7539-0.58467 0.8352-0.79401 2.1289-0.62695 3.8828 0.12528 1.1275 0.45906 2.1723 1.002 3.1328 0.45936 0.8352 1.1704 1.6499 2.1309 2.4434 1.0022 0.7517 2.3996 1.2721 4.1953 1.5644 0.96048 0.1668 1.9016 0.2933 2.8203 0.37695 0.91873 0.08366 1.8579 0.125 2.8184 0.125s1.9204-0.04134 2.8809-0.125c0.96048-0.08365 1.9204-0.16659 2.8809-0.25 0.96048-0.08365 1.9016-0.18922 2.8203-0.31445 0.91873-0.16695 1.8579-0.35557 2.8184-0.56445 0.96048-0.16703 1.8996-0.33295 2.8184-0.5 0.9187-0.20871 1.8164-0.41807 2.6934-0.62695 0.70992-0.16703 1.3982-0.33295 2.0664-0.5 0.66814-0.16706 1.232-0.29356 1.6914-0.37696l1.5664-0.3125c0.20891-0.04157 0.439-0.08317 0.68945-0.125 0.25066-0.04157 0.5015-0.08317 0.75195-0.125-0.20863 0.45934-0.33513 0.98177-0.37695 1.5664-0.041827 0.50111-0.0192 1.0857 0.064453 1.7539 0.083528 0.66817 0.31166 1.3565 0.6875 2.0664 0.41759 0.87698 0.91926 1.4616 1.5039 1.7539 0.58464 0.29226 1.1693 0.45817 1.7539 0.5 0.66814 0.04185 1.3565-0.08269 2.0664-0.375 0.8352-0.33409 1.3991-0.81502 1.6914-1.4414 0.33406-0.66817 0.50195-1.315 0.50195-1.9414 0-0.75167-0.12454-1.5437-0.375-2.3789-0.25056-0.75167-0.62779-1.3363-1.1289-1.7539-0.45936-0.41751-0.91761-0.73252-1.377-0.9414-0.54289-0.20863-1.1275-0.33318-1.7539-0.375 0.33408-0.8352 0.83381-1.4613 1.502-1.8789 0.66817-0.45929 1.3584-0.79307 2.0684-1.002 0.79342-0.25049 1.6496-0.39763 2.5684-0.43946 0.29231 0 0.70906 0.0416 1.252 0.125 0.58464 0.04178 1.19 0.2304 1.8164 0.56446 0.66814 0.29233 1.2943 0.75251 1.8789 1.3789 0.27783 0.27784 0.53104 0.61062 0.76172 0.99219-0.2065 0.40035-0.41391 0.80074-0.58594 1.2109-1.0667 2.4889-1.3856 4.6933-0.95898 6.6133 0.46901 1.9765 1.2572 3.4896 2.3574 4.5508 0.14998 0.16246 0.3039 0.3172 0.4668 0.46094 1.7422 1.6356 4.2141 2.4531 7.4141 2.4531 1.1733 0 2.3099-0.15851 3.4121-0.47851 1.1378-0.35556 2.2228-0.80065 3.2539-1.334 1.0667-0.56889 2.0619-1.2088 2.9863-1.9199 0.96-0.7111 1.8502-1.4408 2.668-2.1875 1.9556-1.7778 3.5735-3.4664 4.8535-5.0664 0.62835-0.78119 1.1775-1.4836 1.668-2.127-0.00148 0.17945-0.01367 0.38241-0.01367 0.55859 0 2.134 0.08981 3.861 0.27148 5.1777 0.04536 0.63567 0.06836 1.5421 0.06836 2.7227 0.04536 1.1351-0.02145 2.3839-0.20312 3.7461-0.13622 1.4076-0.4097 2.884-0.81836 4.4277-0.40865 1.5438-1.0436 3.0431-1.9062 4.4961-8.1275-2.3611-14.984-3.9962-20.568-4.9043-7.2195-1.1351-12.192-0.9305-14.916 0.61328-1.226 0.68107-2.0215 1.6564-2.3848 2.9277 0 0.0454-0.023005 0.20413-0.068359 0.47656s-0.045354 0.61284 0 1.0215c0.045354 0.40865 0.16013 0.86381 0.3418 1.3633 0.13621 0.54486 0.40776 1.0899 0.81641 1.6348 1.1351 1.6346 3.1107 2.9733 5.9258 4.0176 2.6335 0.95352 5.9706 1.6114 10.012 1.9746l1.7715 0.13672c0.49945 0.04535 1.0674 0.06836 1.7031 0.06836 0.59026 0.04535 1.1793 0.06836 1.7695 0.06836 6.947 0.0454 12.26-1.8402 15.937-5.6543 0.31783-0.31783 0.63529-0.65825 0.95313-1.0215 0.27242-0.31783 0.52297-0.65824 0.75-1.0215 7.0832 1.9978 14.371 3.3385 21.863 4.0195h0.61132c0.40865 0.04535 0.90972 0.06641 1.5 0.06641 0.63567 0 1.3394-0.02106 2.1113-0.06641 0.81731-0.04535 1.6339-0.13712 2.4512-0.27344 4.6767-0.81731 7.3331-2.9745 7.9688-6.4707 0.0908-0.31796-0.06792-0.52257-0.47657-0.61328v0.00195c-0.31796-0.09081-0.52257 0.04494-0.61328 0.40821-0.45405 2.9513-2.8159 4.814-7.084 5.5859-0.81729 0.13632-1.6109 0.22613-2.3828 0.27149-0.72647 0.04535-1.3843 0.06836-1.9746 0.06836-0.59028 0-1.0914-0.02301-1.5-0.06836h-0.54492c-7.3557-0.6811-14.46-1.9738-21.316-3.8809 1.7708-2.9059 2.7691-6.3578 2.9961-10.354 0.27243 0.09071 0.52298 0.13672 0.75 0.13672 0.27243 0.04535 0.52102 0.06836 0.74805 0.06836 0.68107-0.0454 1.3179-0.40875 1.9082-1.0898 0.59026-0.68107 1.1334-1.4767 1.6328-2.3848 0.49948-0.95352 0.93169-1.9059 1.2949-2.8594 0.36323-0.99893 0.65774-1.8175 0.88476-2.4531 0.0535-0.14043 0.09788-0.23558 0.15039-0.37109 0.05931 1.8528 0.14493 3.6173 0.2832 5.207 0.22703 2.0432 0.5904 3.5636 1.0898 4.5625 0.09081 0.22707 0.24954 0.36285 0.47656 0.4082 0.22697 0.04561 0.43161 0.00155 0.61328-0.13476l0.06836-0.06836c0.59019-0.40865 0.83876-0.99961 0.74805-1.7715-0.09096-0.59028-0.15777-1.1583-0.20313-1.7031-0.04535-0.59026-0.09136-1.2022-0.13672-1.8379v-1.6348c0.04536-0.86271 0.09137-1.84 0.13672-2.9297 0.09071-1.0897 0.20353-2.2238 0.33985-3.4043 0.13621-1.1806 0.3179-2.2706 0.54492-3.2695 0.22702-1.0443 0.52153-1.8839 0.88476-2.5195 0.36324-0.68115 0.79545-1.0445 1.2949-1.0898 0.27242 0.045405 0.52102 0.33988 0.74804 0.88477 0.18152 0.49945 0.3422 1.318 0.47852 2.4531 0.18142 1.0897 0.22547 2.6999 0.13476 4.834-0.09075 2.3611 0.00101 4.2697 0.27344 5.7227 0.27243 1.4076 0.61282 2.5186 1.0215 3.3359 0.45404 0.7719 0.95319 1.294 1.498 1.5664 0.54486 0.27253 1.0669 0.45422 1.5664 0.54493 0.68107 0.13621 1.316-0.13534 1.9062-0.81641 0.59029-0.6811 1.1353-1.4977 1.6348-2.4512 0.49945-0.95353 0.93168-1.9537 1.2949-2.998 0.40866-1.0443 0.7261-1.8839 0.95312-2.5195 0.05351-0.14047 0.08909-0.23555 0.14063-0.37109 0.05607 1.2069 0.20247 2.3332 0.45312 3.3672 0.36324 1.4984 0.86238 2.7242 1.498 3.6777 0.63569 0.95342 1.3165 1.4984 2.043 1.6348 0.59026 0.13622 1.1123 0.0234 1.5664-0.33984 0.49946-0.36326 0.93169-0.84138 1.2949-1.4316 0.36323-0.63567 0.65774-1.3394 0.88476-2.1113 0.27235-0.81728 0.47697-1.6339 0.61328-2.4512 0.18162 1.4076 0.40921 2.5435 0.68164 3.4062 0.31784 0.81729 0.6353 1.4752 0.95313 1.9746 0.36324 0.45402 0.74953 0.77146 1.1582 0.95312 0.40864 0.22713 0.81597 0.38586 1.2246 0.47657 0.68107 0.13621 1.3179-0.13534 1.9082-0.81641 0.59027-0.6811 1.1353-1.4996 1.6348-2.4531 0.49945-0.95353 0.92971-1.9518 1.293-2.9961 0.36324-1.0443 0.65774-1.8839 0.88476-2.5195 0.36324-0.95352 0.70366-1.795 1.0215-2.5215 0.31786-0.72648 0.59133-1.2696 0.81836-1.6328 0.18167-0.45404 0.25043-0.93218 0.20508-1.4316l-0.00196-0.20312c-0.04535-0.13632-0.13517-0.20508-0.27148-0.20508-0.09096 0-0.18273 0.04601-0.27344 0.13672-0.59026 0.9989-1.1583 2.2477-1.7031 3.7461-0.54486 1.453-1.1109 2.8605-1.7012 4.2227-0.54485 1.3621-1.1358 2.565-1.7715 3.6094-0.59029 0.99896-1.2481 1.5211-1.9746 1.5664-0.40864 0.0454-0.7261-0.27205-0.95312-0.95312-0.22713-0.68108-0.38586-1.5665-0.47657-2.6563-0.09071-1.1351-0.13672-2.3839-0.13672-3.7461 0.04561-1.4076 0.11437-2.7921 0.20508-4.1543 0.09096-1.4075 0.18078-2.7023 0.27149-3.8828 0.09096-1.226 0.18273-2.2242 0.27343-2.9961 0.04541-0.90809-0.27398-1.7037-0.95507-2.3848-0.36324-0.31788-0.6807-0.49957-0.95313-0.54492l-0.54492-0.13672c-0.27238-0.045354-0.49997 0.023409-0.68164 0.20508-0.18167 0.18162-0.29449 0.40921-0.33985 0.68164l-0.13671 2.3145v2.1113c-0.27246-0.90812-0.70271-1.6558-1.293-2.2461-0.54486-0.63572-1.1588-0.97613-1.8398-1.0215-0.68107-0.045405-1.3619 0.2491-2.043 0.88476-0.68109 0.63567-1.293 1.7717-1.8379 3.4063-0.49857 1.5668-0.80986 3.0892-0.94531 4.5723-0.15537 0.37878-0.313 0.73088-0.46484 1.1484-0.54486 1.453-1.1129 2.8605-1.7031 4.2227-0.54485 1.3621-1.1358 2.565-1.7715 3.6094-0.59026 0.99896-1.2252 1.5211-1.9062 1.5664-0.40867 0.0454-0.7261-0.20514-0.95313-0.75-0.18151-0.59026-0.3422-1.3609-0.47851-2.3144-0.09071-0.9535-0.13477-2.0436-0.13477-3.2695 0-1.2713 0.04406-2.5431 0.13477-3.8145 0.09071-1.7708 0.0239-3.36-0.20313-4.7676-0.09081-0.59026-0.24954-1.1812-0.47656-1.7715-0.18162-0.59029-0.43217-1.1124-0.75-1.5664s-0.70413-0.81742-1.1582-1.0898c-0.45405-0.27243-0.9991-0.4082-1.6348-0.4082-0.81731 0-1.4752 0.40928-1.9746 1.2266-0.49945 0.77188-0.92973 1.7472-1.293 2.9277 0.09071-1.68 0.20353-3.2902 0.33985-4.834 0.13616-1.5892 0.29489-3.0656 0.47656-4.4277 0.22697-0.045354 0.43161-0.068359 0.61328-0.068359l0.68164-0.13672c1.4076-0.22702 2.9968-0.47562 4.7676-0.74805 1.7708-0.27235 3.4958-0.47697 5.1758-0.61328s3.2004-0.13632 4.5625 0c1.3622 0.13621 2.3394 0.49956 2.9297 1.0898 0.40859 0.36324 0.59027 0.88534 0.54492 1.5664 0 0.40864 0.1587 0.61328 0.47656 0.61328h0.06836c0.36324 0 0.54297-0.15873 0.54297-0.47656 0.13621-1.0443-0.15829-1.8858-0.88477-2.5215-1.226-1.1805-3.7235-1.6338-7.4922-1.3613-1.7254 0.090809-3.5402 0.27249-5.4473 0.54492-1.907 0.27243-3.7238 0.54398-5.4492 0.81641-0.45399 0.090709-0.77145 0.13672-0.95312 0.13672 0.04535-0.18164 0.06836-0.43021 0.06836-0.74805l0.13476-0.95508c0.04528-0.36259 0.06828-0.7253 0.06836-1.0879v-0.001953c0.09089-0.81672 0.1828-1.6575 0.27344-2.5195 0.09096-0.90812 0.15972-1.5889 0.20508-2.043 0-0.40864-0.02301-0.83892-0.06836-1.293 0-0.49948-0.06876-0.97759-0.20508-1.4316-0.13621-0.45405-0.38481-0.83842-0.74805-1.1562-0.31783-0.36311-0.77299-0.59068-1.3633-0.68164-0.22702-0.04548-0.45461-0.06212-0.68164-0.050781zm124.62 0.12891c-0.74069-0.025493-1.621 0.063238-2.6426 0.26758-1.3167 0.27243-2.7931 0.77157-4.4277 1.498-1.5892 0.72648-3.2472 1.7037-4.9726 2.9297-1.7254 1.1805-3.4045 2.655-5.0391 4.4258-0.90809-0.45407-1.9523-0.83842-3.1328-1.1562-1.1351-0.36324-2.3839-0.6597-3.7461-0.88672-4.1319-0.68107-7.5608-0.43052-10.285 0.75-2.4519 1.0443-4.0411 2.7923-4.7676 5.2441-0.27237 1.0443-0.29343 2.383-0.0664 4.0176 0.22702 1.6346 0.86191 3.2238 1.9062 4.7676 1.1805 1.7254 2.7468 3.1329 4.6992 4.2227 1.7708 0.95352 3.8362 1.6343 6.1973 2.043-0.4541 2.2703-0.70269 4.3376-0.74804 6.1992 0 1.8616 0.06681 3.4948 0.20312 4.9024 0.13616 1.4075 0.29685 2.5435 0.47852 3.4062 0.22707 0.86264 0.36285 1.3847 0.4082 1.5664 0.63569 2.2703 1.611 4.0182 2.9277 5.2441 1.3168 1.226 2.6115 2.1114 3.8828 2.6562 0.54485 0.31779 1.1568 0.56834 1.8379 0.75 0.54488 0.18155 1.1817 0.34025 1.9082 0.47657 0.77188 0.13631 1.5426 0.20312 2.3144 0.20312 3.5416 0 7.1752-1.4075 10.898-4.2226 3.133-2.4065 6.1756-5.6748 9.127-9.8066 1.2713-1.7708 2.4054-3.5187 3.4043-5.2441 1.0443-1.7254 1.9068-3.2687 2.5879-4.6309 0.06421-0.12039 0.08866-0.17292 0.15039-0.28906 0.01762 0.25159 0.02541 0.53144 0.04883 0.76563 0.22702 2.2248 0.59039 3.9059 1.0898 5.041 0.54489 1.0897 1.1129 1.7705 1.7031 2.043 0.63566 0.27243 1.2037 0.40821 1.7031 0.40821 0.6811-0.04541 1.293-0.31891 1.8379-0.81836 0.59027-0.54486 1.1123-1.1798 1.5664-1.9062 0.49945-0.72648 0.93168-1.4762 1.2949-2.248 0.36324-0.81731 0.65774-1.544 0.88477-2.1797 0.02423-0.0636 0.04433-0.10538 0.06836-0.16797 0.03873 1.737 0.1048 3.391 0.23047 4.8672 0.22705 2.134 0.61334 3.7022 1.1582 4.7012 0.27243 0.4995 0.61284 0.58932 1.0215 0.27149l0.13672-0.06836c0.54476-0.45405 0.7704-1.043 0.67969-1.7695l-0.13477-0.95508c0-0.31784-0.023-0.65825-0.06835-1.0215v-1.7012c0.04535-0.86269 0.09136-1.84 0.13671-2.9297 0.09071-1.0897 0.20353-2.2027 0.33985-3.3379 0.13621-1.1805 0.3179-2.2687 0.54492-3.2676 0.22702-0.99892 0.52153-1.8174 0.88476-2.4531 0.36324-0.68112 0.79547-1.0445 1.2949-1.0898 0.31786 0.045405 0.58938 0.34186 0.8164 0.88672 0.22713 0.49945 0.38586 1.316 0.47657 2.4512 0.13606 1.0897 0.15906 2.7019 0.06836 4.8359-0.09071 2.0886-0.02195 3.7677 0.20507 5.0391 0.27243 1.226 0.61284 2.1802 1.0215 2.8613 0.45407 0.63569 0.95319 1.0679 1.498 1.2949 0.54486 0.22702 1.067 0.33984 1.5664 0.33984 0.6811 0 1.316-0.34039 1.9062-1.0215 0.59026-0.68107 1.1353-1.4767 1.6348-2.3848 0.49945-0.95352 0.93168-1.9288 1.2949-2.9277 0.36324-0.99893 0.65774-1.8175 0.88476-2.4531 0.04764-0.12504 0.08792-0.20894 0.13477-0.33008 0.02014 0.34867 0.03012 0.76091 0.05469 1.0801 0.18162 1.7254 0.43021 3.1329 0.74804 4.2227 0.31784 1.0443 0.68118 1.8399 1.0898 2.3848 0.40864 0.49948 0.84087 0.86282 1.2949 1.0898 0.40864 0.18167 0.77201 0.29449 1.0898 0.33984 0.6811 0.13621 1.316-0.13533 1.9062-0.81641 0.59026-0.68109 1.1353-1.4996 1.6348-2.4531 0.49945-0.95353 0.93168-1.9518 1.2949-2.9961 0.36324-1.0443 0.65774-1.8839 0.88477-2.5195 0.03767-0.09889 0.06828-0.16526 0.10547-0.26171 0.06613 1.0166 0.17459 1.9729 0.33398 2.8496 0.22702 1.3167 0.58844 2.5426 1.0879 3.6777 0.54486 1.1351 1.3404 1.8159 2.3848 2.043 0.54485 0.09076 1.044-0.00101 1.498-0.27344 0.45407-0.27245 0.84037-0.67975 1.1582-1.2246 0.36323-0.54486 0.65774-1.1588 0.88476-1.8398 0.27238-0.72648 0.49997-1.4532 0.68164-2.1797 0.04536 0.63567 0.06836 1.5211 0.06836 2.6562 0.04536 1.1351-0.02341 2.4069-0.20508 3.8144-0.13621 1.4076-0.40776 2.884-0.8164 4.4277-0.40865 1.5438-1.0455 3.0412-1.9082 4.4941-8.1275-2.3611-14.984-3.9962-20.568-4.9043-7.2194-1.1351-12.192-0.9305-14.916 0.61328-1.2713 0.68107-2.042 1.6583-2.3144 2.9297 0 0.0454-0.02301 0.20413-0.06836 0.47656-0.09071 0.27243-0.11372 0.61284-0.06836 1.0215 0.04535 0.40864 0.15817 0.86187 0.33984 1.3613 0.13621 0.54489 0.40972 1.0899 0.81836 1.6348 1.1351 1.6346 3.1106 2.9752 5.9258 4.0195 2.7697 1.0443 6.4932 1.7481 11.17 2.1113 0.22703 0.04535 0.54449 0.06641 0.95313 0.06641 0.36324 0.04535 0.79351 0.06836 1.293 0.06836h1.9082v0.00195c6.8562 0.0454 12.167-1.8383 15.936-5.6524 0.59026-0.59026 1.1353-1.273 1.6348-2.0449 7.0832 1.9978 14.371 3.3385 21.863 4.0195h0.61329c0.40864 0.04536 0.90778 0.06836 1.498 0.06836 0.63569 0 1.3394-0.023 2.1113-0.06836 0.81729-0.04535 1.6339-0.13712 2.4512-0.27343 4.6767-0.81731 7.3331-2.9745 7.9688-6.4707 0.09084-0.31796-0.04494-0.52062-0.4082-0.61132-0.36334-0.09081-0.59093 0.04494-0.68164 0.4082-0.45405 2.9513-2.8139 4.8121-7.082 5.584-0.81731 0.18167-1.6129 0.27344-2.3848 0.27344-0.72647 0.04535-1.3843 0.06836-1.9746 0.06836-0.68107 0-1.3389-0.02301-1.9746-0.06836h-0.06836c-7.3557-0.6811-14.462-1.9758-21.318-3.8828 1.7708-2.8605 2.792-6.3334 3.0645-10.42 0.22705 0.13631 0.45461 0.20507 0.68164 0.20507 0.27243 0.04536 0.52297 0.06641 0.75 0.06641 0.68107-0.0454 1.316-0.40875 1.9062-1.0898 0.59028-0.68107 1.1353-1.4747 1.6348-2.3828 0.49946-0.95352 0.93169-1.9078 1.2949-2.8613 0.36327-0.99893 0.65775-1.8155 0.88477-2.4512 0.04754-0.12478 0.08605-0.20918 0.13281-0.33007 0.05766 1.1909 0.20343 2.3042 0.45118 3.3262 0.36323 1.4984 0.86238 2.7242 1.498 3.6777 0.63569 0.95343 1.3165 1.4984 2.043 1.6348 0.59026 0.13621 1.1123 0.02144 1.5664-0.3418 0.49945-0.36326 0.93168-0.83942 1.2949-1.4297 0.36324-0.63566 0.65774-1.3394 0.88476-2.1113 0.27236-0.81729 0.47697-1.6339 0.61329-2.4512 0.18161 1.4076 0.40921 2.5416 0.68164 3.4043 0.31783 0.81729 0.63529 1.4771 0.95312 1.9766 0.36324 0.45403 0.74954 0.77146 1.1582 0.95313 0.40865 0.22712 0.81792 0.38585 1.2266 0.47656 0.68107 0.13621 1.316-0.13729 1.9062-0.81836 0.59026-0.68109 1.1353-1.4977 1.6348-2.4512 0.49945-0.95353 0.92971-1.9518 1.293-2.9961 0.36324-1.0443 0.6597-1.8858 0.88672-2.5215 0.36324-0.95352 0.70365-1.793 1.0215-2.5195 0.31786-0.72648 0.58939-1.2715 0.81641-1.6348 0.18167-0.45404 0.25043-0.93023 0.20508-1.4297v-0.20508c-0.04536-0.13632-0.13712-0.20313-0.27344-0.20313-0.09096 0-0.18077 0.04406-0.27148 0.13477-0.59026 0.9989-1.1583 2.2477-1.7031 3.7461-0.54485 1.453-1.1128 2.8605-1.7031 4.2227-0.54486 1.3621-1.1358 2.567-1.7715 3.6113-0.59028 0.99895-1.2481 1.521-1.9746 1.5664-0.40864 0.04541-0.7261-0.274-0.95312-0.95507-0.22715-0.68108-0.38586-1.5665-0.47656-2.6562-0.09071-1.1352-0.13672-2.384-0.13672-3.7461 0.04535-1.4076 0.11411-2.7921 0.20508-4.1543 0.09096-1.4076 0.18077-2.7003 0.27148-3.8809 0.09096-1.226 0.18273-2.2262 0.27344-2.9981 0.0454-0.9081-0.27203-1.7017-0.95313-2.3828-0.36324-0.31788-0.68265-0.49957-0.95508-0.54492l-0.54297-0.13672c-0.27237-0.045355-0.49997 0.023408-0.68164 0.20508-0.18166 0.18162-0.29644 0.40921-0.34179 0.68164l-0.13477 2.3145v2.1113c-0.27243-0.90812-0.70466-1.6578-1.2949-2.248-0.54486-0.63572-1.1568-0.97613-1.8379-1.0215-0.68107-0.045404-1.3619 0.25105-2.043 0.88672-0.6811 0.63567-1.295 1.7697-1.8398 3.4043-0.49574 1.5579-0.80467 3.0737-0.94141 4.5488-0.15334 0.36538-0.31103 0.70572-0.46094 1.1055-0.54488 1.453-1.1109 2.8605-1.7012 4.2226-0.54486 1.3622-1.1358 2.5421-1.7715 3.541-0.59029 0.9988-1.2252 1.5668-1.9062 1.7031-0.54489 0.09081-0.93118-0.40833-1.1582-1.498-0.18167-1.0897-0.29644-2.4074-0.34179-3.9512-0.04561-1.5438 4e-4 -3.1559 0.13672-4.8359 0.13613-1.7254 0.27188-3.1539 0.4082-4.2891 0.13621-0.81729-0.0894-1.567-0.67969-2.2481-0.31783-0.31776-0.65825-0.54533-1.0215-0.68164-0.18162-0.090961-0.38626-0.15972-0.61328-0.20508-0.22703-0.09096-0.45462-0.04495-0.68164 0.13672-0.18167 0.18162-0.29449 0.40919-0.33985 0.68164-0.09096 1.3167-0.18273 2.5196-0.27344 3.6094-0.04535 1.0897-0.06836 2.1109-0.06836 3.0645-0.09075 0.9535-0.22653 1.9977-0.4082 3.1328-0.13621 1.1351-0.34085 2.2252-0.61328 3.2695-0.27243 0.9989-0.61284 1.8384-1.0215 2.5195-0.36327 0.68112-0.81648 1.0445-1.3613 1.0898-0.49945 0-0.86282-0.43028-1.0898-1.293-0.18172-0.86272-0.31749-1.7482-0.4082-2.6562-0.09071-0.63567-0.13672-1.2725-0.13672-1.9082v-1.8379c0-0.59028 0.02301-1.1812 0.06836-1.7715 0.04536-1.5892 0.13517-2.9967 0.27149-4.2227 0.18172-1.2714 0.31944-2.3385 0.41015-3.2012 0-0.22702-0.023-0.45462-0.06836-0.68164 0-0.27238-0.04601-0.49802-0.13672-0.67969-0.27242-0.40864-0.54395-0.7261-0.8164-0.95312-0.22703-0.22712-0.45462-0.38781-0.68164-0.47852-0.22703-0.13632-0.45462-0.22613-0.68164-0.27148-0.4086-1e-6 -0.7031 0.1587-0.88477 0.47656-0.04535 0.090759-0.06836 0.22653-0.06836 0.4082-0.09096 1.0443-0.15972 2.1344-0.20508 3.2695v2.9961 2.8672c-0.0997 0.25388-0.20255 0.47206-0.30078 0.74218-0.54485 1.453-1.1129 2.8605-1.7031 4.2227-0.54489 1.3621-1.1358 2.567-1.7715 3.6113-0.59026 0.99895-1.2252 1.521-1.9062 1.5664-0.36324 0.04541-0.65969-0.20514-0.88672-0.75-0.22712-0.54485-0.38585-1.2716-0.47656-2.1797-0.22702-3.814-0.25003-7.5146-0.06836-11.102 0.22703-3.6324 0.50053-6.8338 0.81836-9.6035 1.2714-0.22697 2.587-0.43161 3.9492-0.61328 1.3621-0.22707 2.6339-0.36285 3.8144-0.4082 1.1805-0.045355 2.2247 0.023409 3.1328 0.20508 0.95349 0.13621 1.6802 0.40776 2.1797 0.81641 0.49935 0.36324 0.70399 0.88531 0.61328 1.5664 0 0.31793 0.15873 0.52257 0.47657 0.61328h0.06836c0.36323 0 0.54492-0.18168 0.54492-0.54492 0.0454-0.99893-0.27206-1.8155-0.95313-2.4512-1.226-1.0897-3.7465-1.4761-7.5605-1.1582-0.9535 0.090708-1.9518 0.20548-2.9961 0.3418-1.0443 0.13616-2.0904 0.29489-3.1348 0.47656 0.13611-1.1805 0.27384-2.2247 0.41015-3.1328 0.13632-0.90812 0.24914-1.6807 0.33985-2.3164 0.09081-0.63567-0.11381-1.2036-0.61328-1.7031-0.45405-0.49935-0.9991-0.81681-1.6348-0.95312-0.09071-0.045354-0.20353-0.068359-0.33984-0.068359-0.13632 0-0.24914-0.023005-0.33985-0.068359-0.227-0.045607-0.43161 4.03e-4 -0.61328 0.13672-0.13631 0.13622-0.22808 0.3179-0.27344 0.54492-0.09096 0.77191-0.18077 1.839-0.27148 3.2012-0.09096 1.3168-0.18273 2.9958-0.27344 5.0391-0.18157 0.045354-0.36325 0.091364-0.54492 0.13672-0.18157 0-0.36325 0.023005-0.54492 0.06836-2.8606 0.63567-4.8361 0.090614-5.9258-1.6348-0.18162-0.27238-0.43019-0.31839-0.74805-0.13672-0.31798 0.13622-0.38675 0.38676-0.20508 0.75 0.63569 0.9535 1.4982 1.6114 2.5879 1.9746 1.1352 0.45395 2.6345 0.49996 4.4961 0.13672 0.13611-0.045355 0.27188-0.06836 0.4082-0.06836 0.13611 0 0.27189-0.023005 0.4082-0.068359-0.04535 0.36326-0.06836 0.74956-0.06836 1.1582 0 0.36324-0.02105 0.77252-0.0664 1.2266-0.04536 0.95352-0.09137 1.8829-0.13672 2.791-0.04536 0.7719-0.06836 1.5904-0.06836 2.4531v2.1113c0 1.1204 0.01913 2.1146 0.04297 3.0762-0.09892 0.25205-0.20136 0.46828-0.29883 0.73632-0.54486 1.453-1.0899 2.8834-1.6348 4.291-0.54488 1.3621-1.1358 2.544-1.7715 3.543-0.59026 0.99895-1.2481 1.521-1.9746 1.5664-0.40864 0-0.7261-0.22759-0.95313-0.68164-0.18171-0.49945-0.31749-1.1573-0.4082-1.9746-0.04535-0.81728-0.06836-1.7257-0.06836-2.7246 0.04536-1.0443 0.08941-2.1114 0.13477-3.2012 0.09071-1.7708 0.0239-3.36-0.20313-4.7676-0.09081-0.59028-0.24954-1.1583-0.47656-1.7031-0.18162-0.59026-0.43214-1.1124-0.75-1.5664-0.31783-0.45407-0.70416-0.81742-1.1582-1.0898-0.45405-0.27243-0.9991-0.4082-1.6348-0.4082-0.81731-0.045404-1.4981 0.36385-2.043 1.2266-0.54485 0.86269-0.97511 1.9298-1.293 3.2012 0.09097-0.86271 0.15778-1.6353 0.20313-2.3164 0.09096-0.7265 0.15972-1.3404 0.20508-1.8398 0.04535-0.22702 0.04535-0.45266 0-0.67969 0-0.27243-0.06877-0.52298-0.20508-0.75-0.40864-0.63569-0.86188-1.0889-1.3613-1.3613-0.22702-0.13632-0.47757-0.22808-0.75-0.27344-0.36326-0.09081-0.65774 0.067919-0.88476 0.47656-0.09071 0.090759-0.13672 0.22653-0.13672 0.4082-0.09096 2.0433-0.15777 3.9289-0.20313 5.6543v4.1914c-0.31385 0.78755-0.63398 1.5969-0.98047 2.4824-0.72647 1.8616-1.4532 3.3151-2.1797 4.3594-0.68108 0.99883-1.4766 1.5668-2.3848 1.7031-0.54486 0.09081-0.92923-0.31844-1.1562-1.2266-0.22707-0.9081-0.3648-2.0441-0.41016-3.4062-0.04535-1.3622-0.02235-2.7907 0.06836-4.2891 0.13617-1.5438 0.2949-2.8844 0.47657-4.0195 0.09096-0.45405 0.0469-0.86137-0.13477-1.2246-0.13621-0.40864-0.34085-0.77201-0.61328-1.0898-0.18157-0.18174-0.36325-0.31945-0.54492-0.41016-0.18152-0.09096-0.34025-0.18078-0.47657-0.27148-0.18159-0.090709-0.36325-0.13672-0.54492-0.13672-0.63576-0.090809-0.99913 0.18267-1.0898 0.81836-0.20084 2.4683-0.2805 4.5715-0.26367 6.3867-0.29056 0.5864-0.62388 1.2355-1.0254 1.9883-0.68107 1.3168-1.5206 2.8161-2.5195 4.4961-0.9989 1.68-2.1349 3.405-3.4062 5.1758-1.453 2.0432-2.9274 3.86-4.4258 5.4492-1.4984 1.5892-2.9977 2.9508-4.4961 4.0859-3.6778 2.8152-7.2426 4.1328-10.693 3.9512-0.27245 0-0.52102-0.023-0.74805-0.06836-0.22702-0.04535-0.47757-0.09136-0.75-0.13672-0.27242 0-0.56693-0.04405-0.88476-0.13476-0.68107-0.13622-1.4766-0.38676-2.3848-0.75-0.9535-0.40864-1.7471-0.93072-2.3828-1.5664-0.90809-0.86269-1.6348-1.861-2.1797-2.9961-0.49947-1.1351-0.86282-2.34-1.0898-3.6113s-0.33984-2.61-0.33984-4.0176c0.04535-1.3622 0.15817-2.7238 0.33984-4.0859 0.13621-1.1805 0.3179-2.2936 0.54492-3.3379 0.22702-1.0897 0.47755-2.1339 0.75-3.1328 0.63567 0.04536 1.2247 0.06836 1.7695 0.06836 0.59026-0.04535 1.1353-0.09136 1.6348-0.13672 0.54485-0.04535 1.067-0.09136 1.5664-0.13672 1.7254-0.18162 3.7678-0.59089 6.1289-1.2266 2.4065-0.63569 4.8372-1.7028 7.2891-3.2012 1.5438-0.95353 3.0642-2.2023 4.5625-3.7461 1.4984-1.5892 2.7931-3.2912 3.8828-5.1074 1.2259-2.0432 2.0425-3.9728 2.4512-5.7891 0.45404-1.8616 0.45404-3.5197 0-4.9727 0-0.090809-0.11282-0.38531-0.33985-0.88476-0.22702-0.54488-0.65925-1.1129-1.2949-1.7031-0.63566-0.54486-1.3165-0.93118-2.043-1.1582-0.72647-0.2725-1.4762-0.43121-2.248-0.47656-0.21568-0.034035-0.44647-0.054002-0.69336-0.0625zm-140.19 1.0117c0.40667-0.020079 0.7842 0.048921 1.1309 0.20898 0.34724 0.124 0.64747 0.30343 0.9082 0.53125 0.01701 0.019637 0.0362 0.036434 0.05273 0.056641 0.35546 0.39113 0.62289 0.83622 0.80078 1.334 0.17789 0.49779 0.26563 0.97724 0.26563 1.4395v0.001953c0 1.0311-0.33812 2.0072-1.0137 2.9316-0.64 0.88892-1.6696 1.3512-3.0918 1.3867-1.0311 0.035527-2.1333-0.069415-3.3066-0.31836-1.1733-0.28442-2.3825-0.60536-3.627-0.96094l-1.041-0.26953c0.43898-0.55754 0.95545-1.141 1.5723-1.7578 0.67555-0.71113 1.4053-1.3702 2.1875-1.9746 0.81779-0.64 1.6354-1.1901 2.4531-1.6523 0.81779-0.46208 1.5819-0.76584 2.293-0.9082 0.14222-0.026709 0.28046-0.042135 0.41602-0.048828zm141.09 0.14258c0.9535 0.090809 1.7262 0.3184 2.3164 0.68164 0.63569 0.36324 1.1118 0.74761 1.4297 1.1562 0.36313 0.36326 0.61368 0.72661 0.75 1.0898 0.13631 0.31788 0.20312 0.49957 0.20312 0.54492 0.77191 2.6789-0.02171 5.9721-2.3828 9.877-1.0443 1.7254-2.2931 3.3356-3.7461 4.834-1.4076 1.4984-2.8381 2.7032-4.291 3.6113-2.3611 1.453-4.7 2.4971-7.0156 3.1328-2.3157 0.59024-4.3122 0.97653-5.9922 1.1582-1.8616 0.22703-3.3839 0.29384-4.5645 0.20313 0.63567-2.2703 1.2266-4.1081 1.7715-5.5156 0.27243-0.81731 0.56691-1.5211 0.88477-2.1113 0.77188-1.7254 1.5445-3.2707 2.3164-4.6328 0.77191-1.4076 1.5655-2.6564 2.3828-3.7461l0.13672 0.13672c0.04536 0 0.09137 0.023005 0.13672 0.068359 1.0443 0.6811 1.815 1.293 2.3144 1.8379 0.54491 0.49945 0.84137 0.75 0.88672 0.75 0.18162 0.27238 0.43019 0.29538 0.74805 0.068359 0.22702-0.22702 0.25003-0.50053 0.06836-0.81836-0.04541 0-0.33988-0.27155-0.88477-0.81641-0.54485-0.54488-1.3634-1.1798-2.4531-1.9062l-0.27149-0.13672c1.453-1.907 2.9064-3.4064 4.3594-4.4961 1.453-1.1351 2.8376-2.1334 4.1543-2.9961 1.6346-0.99888 3.0421-1.5879 4.2226-1.7695 1.2259-0.18167 2.0655-0.25043 2.5195-0.20508zm-126.74 0.67383c0.09081 0 0.1826 0.023005 0.27344 0.068359 0.22702 0.09081 0.33984 0.56697 0.33984 1.4297 0.04535 0.81728 0.04535 1.7027 0 2.6562-0.04535 1.1351-0.13517 2.4069-0.27148 3.8145 0 0.22702-0.02301 0.47757-0.06836 0.75 0 0.27243-0.02301 0.56693-0.06836 0.88477-0.36324-0.18162-0.68067-0.43217-0.95313-0.75-0.4994-0.49945-0.83981-1.0445-1.0215-1.6348-0.18167-0.63569-0.29644-1.2476-0.3418-1.8379-0.04535-0.68107-0.02235-1.3619 0.06836-2.043v-0.06836c0.09071-0.49945 0.20353-0.93168 0.33984-1.2949 0.13612-0.36324 0.27385-0.68067 0.41016-0.95312 0.18157-0.22697 0.36325-0.43161 0.54492-0.61328 0.13619-0.13632 0.2949-0.24914 0.47657-0.33984 0.09078-0.045354 0.18067-0.068359 0.27148-0.068359zm63.684 4.8594c-0.11261 0.001196-0.22395 0.015908-0.33398 0.039063-0.8304-0.11164-1.5944 0.34863-2.2891 1.3906-0.64013 0.99558-1.0298 2.5964-1.1719 4.8008-0.14221 2.2044 0.28375 5.0124 1.2793 8.4258-0.99555 1.28-2.0978 2.8082-3.3066 4.5859-1.1378 1.7778-2.026 3.3422-2.666 4.6934-0.64005 1.3511-0.99535 2.631-1.0664 3.8398 0 1.2089 0.2483 2.2404 0.74609 3.0938 0.56889 0.85332 1.3502 1.4226 2.3457 1.707 0.40366 0.08074 0.84773 0.08793 1.3125 0.05664 0.91019 0.03613 1.9473-0.16026 3.1211-0.60742 0.99555-0.35555 2.1321-1.2094 3.4121-2.5606 1.1848-1.2506 2.2097-2.7561 3.0898-4.4941 0.94555 0.99814 2.1269 1.9695 3.5723 2.9121 1.6356 1.0667 3.2707 1.8842 4.9062 2.4531 0.40457 0.11032 0.70949 0.12283 0.92383 0.04296 0.56175 0.08374 0.88952-0.06812 0.94922-0.48632 0.07111-0.56895-0.07218-0.88989-0.42773-0.96094-1.28-0.14224-2.7012-0.56819-4.2656-1.2793-1.5644-0.78221-3.2722-2.2053-5.1211-4.2676 0.35555-1.1378 0.5332-2.3813 0.5332-3.7324 0-1.4222-0.07078-2.4901-0.21289-3.2012-0.14221-0.56879-0.42683-0.78078-0.85351-0.63867-0.04058 0.01622-0.06552 0.03661-0.09961 0.05469-0.13566-0.08376-0.297-0.10212-0.49219-0.03711-0.35578 0.14223-0.46268 0.35422-0.32031 0.63867 0.35555 0.78221 0.5332 1.7794 0.5332 2.9883 0 0.90579-0.0874 1.7527-0.22266 2.5684-0.78403-1.003-1.4755-2.1438-2.0644-3.4394-0.64-1.5644-1.2092-3.0583-1.707-4.4805 1.5644-2.9156 2.4526-5.4046 2.666-7.4668 0.21335-2.1333 0.07201-3.7341-0.42578-4.8008-0.42666-1.1378-1.1029-1.7414-2.0273-1.8125-0.10667-0.01778-0.21196-0.0265-0.31641-0.025391zm33.891 1.0938c1.2813-0.008513 2.6716 0.098965 4.1699 0.32031 2.3611 0.40864 4.4494 1.0435 6.2656 1.9062-0.9989 1.1351-1.9283 2.3839-2.791 3.7461-0.86269 1.3622-1.6583 2.8385-2.3848 4.4277-0.72647 1.5892-1.3384 3.1325-1.8379 4.6309-0.45404 1.453-0.84034 2.8834-1.1582 4.291-2.2703-0.40866-4.2458-1.0665-5.9258-1.9746-1.8162-0.99892-3.2696-2.2936-4.3594-3.8828-0.90812-1.3168-1.4971-2.8161-1.7695-4.4961-0.22712-1.2713-0.18306-2.4054 0.13477-3.4043 0.54488-2.0886 1.9314-3.6109 4.1562-4.5645 1.5324-0.65269 3.3645-0.98581 5.5-1zm-33.604 0.82617c0.27881 0.12148 0.4841 0.4528 0.61133 1.0039 0.21317 0.85332 0.24758 1.9192 0.10547 3.1992-0.07111 1.28-0.28312 2.5962-0.63867 3.9473-0.24366 0.92593-0.50614 1.6717-0.78321 2.2637-0.12814-0.43043-0.24451-0.80415-0.43945-1.5352-0.21319-1.1378-0.39084-2.3107-0.5332-3.5195-0.07106-1.2089-0.03469-2.3111 0.10742-3.3066 0.21334-1.0667 0.7119-1.7429 1.4941-2.0273 0.02659-0.011821 0.05032-0.015658 0.07617-0.025391zm-84.033 6.6309c0.65333-0.020078 1.2479 0.090079 1.7812 0.33008 0.29707 0.11882 0.52005 0.24928 0.69922 0.38672 0.082516 0.11558 0.14278 0.23453 0.1543 0.36133 0 0.28437-0.14133 0.54988-0.42578 0.79883-0.2489 0.24882-0.58701 0.47994-1.0137 0.69336-0.42666 0.17789-0.88893 0.33836-1.3867 0.48047-0.46221 0.10658-0.88819 0.16016-1.2793 0.16016-0.67558 0.035527-1.2276-0.035253-1.6543-0.21289-0.39388-0.1969-0.71951-0.41138-0.99219-0.63867-0.223-0.23895-0.4169-0.49979-0.55469-0.80273 0.42668-0.35555 1.0475-0.67649 1.8652-0.96094 0.81779-0.2845 1.5303-0.46215 2.1348-0.5332 0.23111-0.03559 0.4541-0.055807 0.67188-0.0625zm160.78 1.8691c-0.19297 0.011339-0.38088 0.050983-0.5625 0.11914-0.31788 0.13621-0.49956 0.3179-0.54492 0.54492-0.0454 0.27245 0.06742 0.52298 0.33984 0.75 0.31784 0.18172 0.68118 0.3175 1.0898 0.4082 0.45405 0.09096 0.84037 0.067955 1.1582-0.06836 0.31789-0.13621 0.49957-0.3389 0.54492-0.61133 0.04541-0.227-0.06741-0.43161-0.33984-0.61328-0.27243-0.22712-0.6358-0.38585-1.0898-0.47656-0.20434-0.04548-0.40273-0.064073-0.59571-0.052734zm-149.81 0.0625c-0.19297 0.011339-0.37038 0.050983-0.52929 0.11914-0.31789 0.13624-0.49957 0.3179-0.54493 0.54492-0.0454 0.27243 0.06937 0.52102 0.3418 0.74805 0.27243 0.18172 0.6358 0.31945 1.0898 0.41016 0.45408 0.09096 0.84038 0.067955 1.1582-0.06836 0.31788-0.13621 0.49957-0.34085 0.54492-0.61328 0.0454-0.22697-0.06937-0.43161-0.3418-0.61328-0.27243-0.22715-0.63577-0.38585-1.0898-0.47656-0.22702-0.04548-0.43594-0.06212-0.62891-0.050781zm209.39 3.127c0.32352-0.059603 0.6221 0.098049 0.89453 0.47266 0.40865 0.49945 0.74906 1.1344 1.0215 1.9063 0.27232 0.7265 0.47696 1.4762 0.61328 2.248 0.13631 0.72642 0.22613 1.1797 0.27148 1.3613 0 0.22695 0.02301 0.40861 0.06836 0.54493-0.04535 0.90809-0.15817 1.9752-0.33984 3.2012-0.13622 1.1805-0.34085 2.3395-0.61328 3.4746-0.27243 1.0897-0.6358 2.0191-1.0898 2.791-0.40864 0.77193-0.88676 1.1812-1.4316 1.2266-0.45404 0.0454-0.79446-0.27206-1.0215-0.95313-0.18172-0.72647-0.3175-1.522-0.40821-2.3848-0.13606-0.9989-0.18207-2.1329-0.13671-3.4043 0.09076-2.4519 0.22848-4.3585 0.41015-5.7207 0.18162-1.4076 0.38431-2.4517 0.61133-3.1328 0.22702-0.81726 0.50053-1.3183 0.81836-1.5 0.11352-0.068113 0.22419-0.11099 0.33203-0.13086zm-177.85 0.12891c0.32352-0.059603 0.62015 0.098049 0.89258 0.47266 0.40864 0.49945 0.74905 1.1344 1.0215 1.9063 0.27233 0.7265 0.47697 1.4762 0.61328 2.248 0.13632 0.72643 0.22809 1.1816 0.27344 1.3633 0 0.22695 0.023 0.40861 0.06836 0.54493-0.04536 0.90809-0.16013 1.9752-0.3418 3.2012-0.13621 1.1805-0.34085 2.3375-0.61328 3.4726-0.27243 1.0897-0.6358 2.0211-1.0898 2.793-0.40865 0.77193-0.88481 1.1793-1.4297 1.2246-0.45405 0.04541-0.79446-0.27205-1.0215-0.95312-0.18171-0.72648-0.31749-1.5201-0.4082-2.3828-0.13606-0.9989-0.18207-2.1349-0.13672-3.4062 0.09076-2.4519 0.22654-4.3585 0.40821-5.7207 0.18162-1.4076 0.38625-2.4517 0.61328-3.1328 0.22702-0.81726 0.50052-1.3164 0.81836-1.498 0.11351-0.068114 0.22419-0.11294 0.33203-0.13281zm39.592 3.1816c0.53602 1.2719 1.2009 2.4409 2.0078 3.4961 0.92444 1.2089 1.9903 2.4544 3.1992 3.7344-0.64 1.7067-1.6009 3.1985-2.8809 4.4785-1.28 1.2089-2.4165 2.0991-3.4121 2.668-0.33155 0.18431-0.67281 0.29704-1.0234 0.34766-0.1362-0.0088-0.27319-0.01907-0.41211-0.04688-0.7111-0.21331-1.3147-0.56861-1.8125-1.0664-0.42678-0.5689-0.7114-1.3158-0.85351-2.2402-0.14224-0.92442 0.00105-2.0266 0.42773-3.3066 0.0711-0.28444 0.31943-0.81737 0.74609-1.5996 0.49779-0.85331 1.0307-1.7416 1.5996-2.666 0.64-0.99555 1.2093-1.8838 1.707-2.666 0.33019-0.56614 0.50197-0.81708 0.70704-1.1328zm-112.77 3.6074c0.54289 0 1.0445 0.08295 1.5039 0.25 0.37584 0.16703 0.75112 0.41787 1.127 0.75196 0.37581 0.33408 0.6474 0.81501 0.81445 1.4414 0.12523 0.54287 0.1875 1.0426 0.1875 1.502 0 0.41762-0.082945 0.81557-0.25 1.1914-0.12528 0.37589-0.39686 0.62673-0.81445 0.75195-0.58464 0.16708-1.0429 0.10286-1.377-0.18945-0.33401-0.33408-0.60557-0.70937-0.81445-1.127-0.20891-0.45937-0.35605-1.044-0.43945-1.7539-0.12523-1.1693-0.10456-2.1084 0.0625-2.8184zm203.42 17.205c0.99891 0.01134 2.1454 0.09498 3.4394 0.25391 3.0421 0.36323 6.1746 0.86433 9.3984 1.5 3.1784 0.63566 6.1521 1.2706 8.9219 1.9062 1.3167 0.31783 2.5656 0.61233 3.7461 0.88476 1.1806 0.27243 2.2477 0.52298 3.2012 0.75-1.3622 1.9978-3.2918 3.6769-5.7891 5.0391-2.4973 1.3623-5.7446 2.089-9.7402 2.1797-0.63567 0-1.2266-0.023-1.7715-0.06836-0.59027 0-1.1124-0.02105-1.5664-0.0664-0.49948-0.04536-0.9986-0.09137-1.498-0.13672-2.3611-0.22703-4.3805-0.54446-6.0605-0.95313-1.7254-0.40864-3.1559-0.86383-4.291-1.3633-1.1806-0.49945-2.1119-1.0215-2.793-1.5664-0.7265-0.54486-1.2715-1.067-1.6348-1.5664-0.59032-0.81731-0.90778-1.544-0.95313-2.1797-0.04535-0.63566-0.04535-1.0659 0-1.293 0.22702-0.7719 0.74912-1.4317 1.5664-1.9766 0.7265-0.45405 1.8166-0.83842 3.2695-1.1562 0.70377-0.13625 1.5558-0.19884 2.5547-0.1875zm-195.72 0.12891c0.99892 0.01133 2.1454 0.09694 3.4395 0.25586 3.0875 0.36323 6.243 0.86238 9.4668 1.498 3.1784 0.63569 6.1522 1.2706 8.9219 1.9062 1.3168 0.31784 2.5656 0.61429 3.7461 0.88672 1.1351 0.27243 2.2023 0.52102 3.2012 0.74805-1.3621 1.9978-3.2918 3.6788-5.7891 5.041-2.4973 1.3623-5.7446 2.089-9.7402 2.1797-0.49945 0.04536-0.9986 0.04536-1.498 0-0.54488-0.04535-1.021-0.09136-1.4297-0.13672-0.49945-0.04535-0.97564-0.09136-1.4297-0.13672-2.4519-0.18162-4.5402-0.47609-6.2656-0.88476-1.7708-0.40864-3.2472-0.86383-4.4277-1.3633-1.226-0.49946-2.2032-1.0215-2.9297-1.5664-0.72648-0.54486-1.2696-1.088-1.6328-1.6328-0.59034-0.81729-0.90972-1.544-0.95508-2.1797-0.045355-0.63567-0.045355-1.0679 0-1.2949 0.22702-0.77191 0.7491-1.4298 1.5664-1.9746 0.72648-0.45405 1.7936-0.84037 3.2012-1.1582 0.70379-0.13624 1.5558-0.19884 2.5547-0.1875zm107.62 14.275-4.5469 8.7734 4.5469 8.7754 4.5469-8.7754-4.5469-8.7734zm-26.434 6.9355-151.79 1.8379 151.79 1.8379v-3.6758zm51.096 0v3.6758l151.79-1.8379-151.79-1.8379zm10.398 25.727c-0.37042 0-0.70112 0.05603-0.99219 0.16992-0.37019 0.13646-0.67375 0.31909-0.91211 0.54687-0.23816 0.20468-0.43696 0.41014-0.5957 0.61524-0.18523 0.25043-0.32972 0.51197-0.43555 0.78515-0.2117 0.5464-0.37074 1.0695-0.47656 1.5703-0.07862 0.50086-0.13295 0.945-0.16016 1.332-0.02721 0.43253-0.02721 0.84344 0 1.2305 0.05291 0.4553 0.11985 0.84141 0.19922 1.1602 0.07937 0.31859 0.18608 0.59254 0.31836 0.82032 0.10588 0.2506 0.25035 0.46651 0.43555 0.64843 0.21165 0.27309 0.46283 0.48894 0.7539 0.64844 0.29105 0.13657 0.56939 0.22783 0.83399 0.27344 0.29105 0.06828 0.58199 0.09103 0.87304 0.06836 0.44984 0.02267 0.83291-0.02283 1.1504-0.13672 0.34402-0.13647 0.63494-0.28387 0.87305-0.44336 0.29108-0.18217 0.54225-0.37718 0.75391-0.58203-0.05292 0.81958-0.13221 1.5481-0.23828 2.1855-0.10583 0.61468-0.19798 1.1397-0.27735 1.5723-0.10582 0.50084-0.21058 0.93263-0.3164 1.2969-0.07937 0.27321-0.18608 0.55758-0.31836 0.85352-0.13234 0.27316-0.29137 0.5347-0.47657 0.78516-0.15879 0.22752-0.34303 0.42058-0.55468 0.58008-0.21168 0.13681-0.45025 0.20703-0.71485 0.20703-0.37044 0-0.66139-0.08074-0.87304-0.24024-0.21168-0.15939-0.38335-0.34202-0.51563-0.54687-0.10583-0.22746-0.18537-0.44334-0.23828-0.64844-0.02721-0.20483-0.04102-0.36463-0.04102-0.47852-0.02721 0-0.04101-0.02275-0.04101-0.06836v-0.20507c-0.02721-0.18218-0.04102-0.34-0.04102-0.47657v-0.30859c-0.02645-0.11389-0.06622-0.23843-0.11914-0.375-0.02645-0.06828-0.07883-0.13679-0.1582-0.20508l-0.1582-0.06836h-0.04102c-0.23813-0.02278-0.43696 0.1703-0.5957 0.58008-0.10507 0.25031-0.17201 0.48902-0.19922 0.7168-0.05291 0.59192-5.4e-4 1.0941 0.1582 1.5039 0.15879 0.387 0.34499 0.70463 0.55664 0.95508 0.23811 0.29591 0.51646 0.53463 0.83399 0.7168 0.29105 0.18217 0.58199 0.28592 0.87304 0.30859 0.31756 0.04536 0.59588 0.05588 0.83399 0.03321 0.29105-0.02268 0.56744-0.07871 0.83203-0.16993 0.44981-0.11384 0.89982-0.31927 1.3496-0.61523 0.37044-0.25041 0.75349-0.60326 1.1504-1.0586 0.42336-0.47806 0.80838-1.1153 1.1523-1.9121 0.13229-0.3415 0.2516-0.77326 0.35742-1.2969 0.10583-0.43255 0.19798-0.96804 0.27735-1.6055 0.07937-0.66023 0.14435-1.424 0.19726-2.2891l0.00586 0.00195c0.05292-0.72851 0.05292-1.4694 0-2.2207-0.05291-0.61468-0.14506-1.2623-0.27734-1.9453-0.10585-0.70574-0.30468-1.3221-0.5957-1.8457-0.34399-0.59192-0.72706-1.0465-1.1504-1.3652-0.3969-0.34137-0.7819-0.59246-1.1524-0.75195-0.42335-0.18243-0.84617-0.28397-1.2695-0.30664-0.1852-0.02268-0.46354-0.02268-0.83398 0zm-38.289 0.05859c-0.09204 0.01697-0.1853 0.05497-0.27734 0.11133-0.21132 0.11384-0.43422 0.27406-0.67187 0.47851-0.23817 0.20508-0.46413 0.39816-0.67579 0.58008-0.26461 0.22755-0.51579 0.45582-0.7539 0.6836-0.37045 0.31871-0.31807 0.62591 0.1582 0.92187 0.13234 0.09121 0.27876 0.11397 0.4375 0.06836 0.07937-0.02268 0.14435-0.05791 0.19727-0.10352 0.18522-0.09108 0.43637-0.27176 0.7539-0.54492-0.10582 0.84233-0.19797 1.8324-0.27734 2.9707-0.05317 1.1155-0.10529 2.2302-0.1582 3.3457-0.0257 1.1155-0.05287 2.1512-0.08008 3.1074 0 0.93339-0.0138 1.6287-0.04102 2.084-0.05291 1.2294-0.01314 2.1282 0.11914 2.6973 0.15874 0.54639 0.55637 0.82031 1.1914 0.82031 0.2117 0 0.39595-0.10374 0.55469-0.30859s0.27805-0.43118 0.35742-0.68164c0.10507-0.29596 0.172-0.63837 0.19922-1.0254 0.07937-0.52359 0.14435-1.1836 0.19726-1.9805 0.05216-0.7968 0.09193-1.6395 0.11914-2.5273 0.02722-0.91064 0.04102-1.8322 0.04102-2.7656 0-0.95617-0.0138-1.8549-0.04102-2.6973 0-0.84234-0.02521-1.5937-0.07812-2.2539-0.05291-0.66023-0.10724-1.1605-0.16016-1.502-0.10582-0.52365-0.23774-0.8889-0.39648-1.0938-0.15879-0.20485-0.30327-0.3294-0.43555-0.375-0.09261-0.02281-0.18669-0.02684-0.2793-0.00977zm6.2793 0c-0.09261 0.01707-0.18474 0.05438-0.27734 0.11133-0.21145 0.11389-0.43547 0.27366-0.67383 0.47851-0.23816 0.20508-0.46218 0.39816-0.67383 0.58008-0.26462 0.22755-0.51775 0.45582-0.75586 0.6836-0.37019 0.31871-0.31611 0.62591 0.16016 0.92187 0.13231 0.09121 0.2768 0.11397 0.43555 0.06836 0.07937-0.02268 0.1463-0.05791 0.19921-0.10352 0.18523-0.09108 0.4364-0.27176 0.75391-0.54492-0.10583 0.84233-0.19797 1.8324-0.27734 2.9707l-0.15821 3.3457c-0.0257 1.1155-0.05286 2.1512-0.08007 3.1074-1e-5 0.93339-0.01381 1.6287-0.04102 2.084-0.05291 1.2294-0.01314 2.1282 0.11914 2.6973 0.15877 0.54639 0.55637 0.82031 1.1914 0.82031 0.21167 0 0.39594-0.10374 0.55468-0.30859s0.27806-0.43118 0.35743-0.68164c0.10507-0.29596 0.172-0.63837 0.19921-1.0254 0.07937-0.52359 0.14436-1.1836 0.19727-1.9805 0.05216-0.7968 0.09193-1.6395 0.11914-2.5273 0.02721-0.91064 0.04102-1.8322 0.04102-2.7656 0-0.95617-0.01381-1.8549-0.04102-2.6973 0-0.84234-0.02521-1.5937-0.07812-2.2539-0.05292-0.66023-0.10725-1.1605-0.16016-1.502-0.10585-0.52365-0.23774-0.8889-0.39648-1.0938-0.15875-0.20485-0.30327-0.3294-0.43555-0.375-0.09263-0.02281-0.18669-0.02684-0.2793-0.00977zm24.824 0c-0.09205 0.01697-0.18726 0.05497-0.2793 0.11133-0.21134 0.11384-0.43422 0.27406-0.67187 0.47851-0.23816 0.20508-0.46413 0.39816-0.67578 0.58008-0.26462 0.22755-0.5158 0.45582-0.75391 0.6836-0.37044 0.31871-0.31807 0.62591 0.1582 0.92187 0.13234 0.09121 0.27876 0.11397 0.4375 0.06836 0.07937-0.02268 0.14436-0.05791 0.19727-0.10352 0.1852-0.09108 0.43637-0.27176 0.75391-0.54492-0.10583 0.84233-0.19798 1.8324-0.27735 2.9707l-0.1582 3.3457c-0.0257 1.1155-0.05287 2.1512-0.08008 3.1074 0 0.93339-0.0138 1.6287-0.04102 2.084-0.05291 1.2294-0.01314 2.1282 0.11915 2.6973 0.15879 0.54639 0.55639 0.82031 1.1914 0.82031 0.21171 0 0.3979-0.10374 0.55664-0.30859s0.2761-0.43118 0.35547-0.68164c0.10507-0.29596 0.17201-0.63837 0.19922-1.0254 0.07937-0.52359 0.14631-1.1836 0.19922-1.9805 0.05216-0.7968 0.09193-1.6395 0.11914-2.5273 0.02721-0.91064 0.03906-1.8322 0.03906-2.7656 0-0.95617-0.01185-1.8549-0.03906-2.6973 0-0.84234-0.02717-1.5937-0.08008-2.2539-0.05291-0.66023-0.10529-1.1605-0.1582-1.502-0.10583-0.52365-0.2397-0.8889-0.39844-1.0938-0.15876-0.20485-0.30326-0.3294-0.43555-0.375-0.09262-0.02281-0.18473-0.02684-0.27734-0.00977zm-69.664 0.04297c-0.1786 0-0.34711 0.01235-0.50586 0.03515-0.2911 0.04536-0.55486 0.11387-0.79297 0.20508-0.21165 0.06829-0.3979 0.1576-0.55664 0.27149-0.13228 0.09096-0.22443 0.15947-0.27734 0.20508-0.21171 0.18214-0.42312 0.43326-0.63477 0.75195-0.18522 0.29596-0.38405 0.68207-0.5957 1.1602-0.21171 0.47808-0.39595 1.0944-0.55469 1.8457-0.05216 0.22778-0.09193 0.45411-0.11914 0.68164 0 0.20485-0.02717 0.43314-0.08008 0.68359-0.05216 0.45531-0.09193 0.90988-0.11914 1.3652-0.0257 0.4553-0.05091 0.91188-0.07813 1.3672-0.05291 0.93342-0.05291 1.8094 0 2.6289 0 0.86511 0.10476 1.685 0.31641 2.459 0.18522 0.66021 0.46354 1.3307 0.83398 2.0137 0.39688 0.6602 0.96617 1.15 1.707 1.4688 0.10585 0.0456 0.29009 0.09111 0.55468 0.13672 0.2646 0.0456 0.58271 0.0456 0.95313 0 0.47629-0.04536 0.88651-0.13662 1.2305-0.27344 0.37047-0.13654 0.674-0.29439 0.91211-0.47656 0.29107-0.20485 0.54225-0.43314 0.7539-0.6836 0.34399-0.43255 0.63494-0.92238 0.87305-1.4688 0.23816-0.54639 0.42436-1.0695 0.55664-1.5703 0.15874-0.59193 0.29066-1.1835 0.39648-1.7754 0.21241-1.1611 0.30456-2.2092 0.27735-3.1426-0.02621-0.93339-0.09119-1.7304-0.19727-2.3906-0.10585-0.75127-0.26491-1.4342-0.47656-2.0488-0.29107-0.81958-0.66151-1.4568-1.1113-1.9121-0.42335-0.45521-0.83362-0.79761-1.2305-1.0254-0.47629-0.25043-0.96602-0.40828-1.4688-0.47657-0.19845-0.0228-0.3878-0.03515-0.5664-0.03515zm10.547 0c-0.37044 0.04561-0.6866 0.12439-0.95117 0.23828-0.23816 0.09121-0.44957 0.1947-0.63477 0.30859-0.2117 0.13655-0.3979 0.29635-0.55664 0.47852-0.07905 0.1131-0.15922 0.21579-0.23828 0.30664-0.07937 0.09121-0.14435 0.19275-0.19726 0.30664-0.23811 0.50084-0.39719 0.95741-0.47656 1.3672-0.07938 0.38702-0.11915 0.72747-0.11915 1.0234 0 0.34146 0.02717 0.64866 0.08008 0.92187 0.05292 0.31872 0.1305 0.61549 0.23633 0.88867 0.10583 0.25041 0.22514 0.5015 0.35742 0.75196 0.15874 0.2276 0.38473 0.39782 0.67578 0.51171-0.44979 0.1821-0.82025 0.47692-1.1113 0.88672-0.29108 0.40978-0.51705 0.8207-0.67579 1.2305-0.18522 0.50086-0.32972 1.024-0.43554 1.5703-0.13304 0.63746-0.18737 1.2643-0.16016 1.8789 0.02646 0.52364 0.106 1.0924 0.23828 1.707 0.13231 0.5919 0.42324 1.1274 0.87305 1.6055 0.18522 0.20485 0.42379 0.39791 0.71484 0.58008 0.23814 0.15939 0.52909 0.30679 0.87305 0.44336 0.37044 0.11389 0.80782 0.17187 1.3106 0.17187h0.71484c0.26462-0.02267 0.5158-0.08066 0.75391-0.17187 0.52921-0.15937 0.96465-0.39808 1.3086-0.7168 0.3705-0.34149 0.67595-0.67152 0.91406-0.99023 0.29105-0.38703 0.5277-0.79596 0.71289-1.2285 0.05292-0.22765 0.10725-0.5016 0.16016-0.82031 0.05216-0.31872 0.09193-0.67157 0.11914-1.0586v-0.58008c0-0.2047-0.02716-0.41014-0.08008-0.61524-0.07942-0.70571-0.23845-1.2973-0.47656-1.7754-0.23814-0.47806-0.48931-0.85374-0.75391-1.127-0.29102-0.31867-0.60913-0.56978-0.95312-0.75195 0.68792-0.11382 1.1777-0.39819 1.4688-0.85352 0.31753-0.47809 0.51633-0.96791 0.5957-1.4688 0.10583-0.59192 0.10583-1.2291 0-1.9121-0.15876-0.86508-0.47685-1.5128-0.95312-1.9453-0.44982-0.43251-0.92498-0.74166-1.4277-0.92383-0.5821-0.2051-1.2183-0.28389-1.9062-0.23828zm-0.03906 0.78515c0.44981 0.02276 0.84742 0.1597 1.1914 0.41016 0.29105 0.22768 0.54225 0.59291 0.7539 1.0938 0.21166 0.50084 0.27664 1.2294 0.19727 2.1856-0.05292 0.52359-0.15767 0.94493-0.31641 1.2637-0.15876 0.29581-0.33043 0.52214-0.51562 0.68164-0.18523 0.13657-0.37145 0.22783-0.55664 0.27344-0.15874 0.0456-0.29066 0.06836-0.39649 0.06836-0.29107 0.02267-0.55486-8e-5 -0.79297-0.06836-0.2117-0.09096-0.38529-0.19275-0.51757-0.30664-0.15877-0.11389-0.30327-0.24039-0.43555-0.37696-0.21168-0.25043-0.35813-0.52239-0.4375-0.81835-0.07937-0.31872-0.11914-0.62592-0.11914-0.92188 0-0.34147 0.02716-0.6839 0.08008-1.0254 0.02645-0.22765 0.07883-0.46634 0.1582-0.7168 0.05291-0.205 0.14701-0.42091 0.2793-0.64843 0.13233-0.22756 0.30397-0.45582 0.51562-0.6836 0.02646-0.02268 0.1186-0.09119 0.27734-0.20508 0.15879-0.13682 0.3702-0.20508 0.63477-0.20508zm-10.754 0.01758c0.09261 0.0114 0.19105 0.04033 0.29688 0.08594 0.21173 0.09104 0.43767 0.26126 0.67578 0.51172 0.26459 0.25043 0.52838 0.64894 0.79297 1.1953 0.02646 0.13664 0.08078 0.27359 0.16016 0.41016 0.05291 0.11369 0.10528 0.25066 0.1582 0.41015 0.05291 0.13639 0.10529 0.27139 0.1582 0.40821 0.05291 0.13644 0.08008 0.28581 0.08008 0.44531 0.02646 0.15922 0.06623 0.31707 0.11914 0.47656l0.11914 1.332v1.3672c-0.02721 0.25031-0.04102 0.48902-0.04102 0.7168v0.7168c-0.05291 0.97892-0.13245 1.8548-0.23828 2.6289-0.05291 0.27319-0.11984 0.5471-0.19922 0.82031-0.05291 0.25044-0.11789 0.52438-0.19726 0.82032-0.07937 0.29593-0.18608 0.5679-0.31836 0.81836h0.00195c-0.21165 0.52361-0.46285 0.98016-0.7539 1.3672-0.23814 0.31862-0.51646 0.59058-0.83399 0.81836-0.29105 0.20485-0.60721 0.21733-0.95117 0.03516-0.31756-0.11384-0.56871-0.36493-0.75391-0.75195-0.18519-0.38703-0.34427-0.78554-0.47656-1.1953-0.13228-0.47806-0.22443-1.0135-0.27734-1.6055-0.05216-0.34149-0.09193-0.69434-0.11914-1.0586-0.02722-0.36425-0.04102-0.7399-0.04102-1.127-0.02721-0.387-0.04101-0.77314-0.04101-1.1602 0.0257-0.38702 0.05091-0.77508 0.07812-1.1621 0.05294-1.5025 0.18679-2.719 0.39844-3.6523 0.2117-0.95617 0.43572-1.6971 0.67383-2.2207 0.29102-0.61471 0.59653-1.0693 0.91406-1.3652h0.03906c0.07937-0.02293 0.18608-0.04568 0.31836-0.06836 0.07938-0.0228 0.16521-0.02898 0.25781-0.01758zm76.867 0.15235c0.14553-0.0114 0.30458 0.01141 0.47656 0.06836l0.23828 0.13671 0.31836 0.13672 0.31641 0.20508c0.10558 0.06829 0.21228 0.15955 0.31836 0.27344 0.10583 0.11364 0.19797 0.22791 0.27734 0.3418 0.10583 0.09096 0.19798 0.2155 0.27735 0.375 0.13228 0.22767 0.2642 0.54725 0.39648 0.95703 0.21166 0.77404 0.31836 1.6043 0.31836 2.4922v0.13671c0 0.02293-0.0138 0.04569-0.04101 0.06836-0.05292 0.11372-0.11985 0.25066-0.19922 0.41016-0.05292 0.13659-0.1179 0.27359-0.19727 0.41016v0.06835l-0.04101 0.03321c-0.02722 0.02293-0.04102 0.04568-0.04102 0.06836l-0.04102 0.0332c0 0.02293-0.0138 0.04568-0.04101 0.06836v0.03516c-0.02721 0.02293-0.04102 0.04568-0.04102 0.06836 0 0.02267-0.0138 0.0332-0.04101 0.0332-0.05216 0.04561-0.08998 0.09111-0.11719 0.13672 0 0.02293-0.0138 0.04568-0.04102 0.06836-0.02721 0.02293-0.04101 0.04568-0.04101 0.06836l-0.04102 0.03515c-0.05291 0.04561-0.08007 0.07889-0.08007 0.10156-0.05292 0.06829-0.1179 0.1368-0.19727 0.20508-0.07937 0.04561-0.14631 0.09112-0.19922 0.13672l-0.23828 0.13672c-0.05291 0.04561-0.11985 0.09111-0.19922 0.13672-0.26459 0.11389-0.6205 0.17187-1.0703 0.17187h-0.11914l-0.15821-0.03515c-0.07886 0-0.13294-0.01053-0.16015-0.0332h-0.08008-0.03906c-0.10583-0.04561-0.18537-0.06836-0.23828-0.06836-0.02646-0.02268-0.0934-0.05596-0.19922-0.10157-0.05317-0.0456-0.10529-0.09306-0.15821-0.13867l-0.16015-0.20312c-0.05317-0.09096-0.10529-0.15948-0.1582-0.20508-0.05216-0.09121-0.09193-0.17195-0.11915-0.24024-0.05291-0.15924-0.10529-0.31902-0.1582-0.47851-0.05216-0.18207-0.09193-0.36275-0.11914-0.54492-0.05291-0.18198-0.08008-0.35418-0.08008-0.51368v-0.54492c-0.02721-0.18199-0.04101-0.35417-0.04101-0.51367 0.0257-0.15924 0.05286-0.31707 0.08008-0.47656l0.00585-0.24024v-0.03515c0.02722-0.02293 0.04102-0.04568 0.04102-0.06836v-0.13672-0.10156c0.02721-0.02268 0.04102-0.05791 0.04102-0.10352v-0.10156c0.02721-0.02268 0.04101-0.05791 0.04101-0.10352 0.05291-0.2502 0.10529-0.47654 0.1582-0.68164 0.05292-0.20492 0.10725-0.3771 0.16016-0.51367s0.10529-0.25058 0.1582-0.3418c0.07937-0.11363 0.14436-0.22595 0.19727-0.33984 0.02721 0 0.04101-0.02275 0.04101-0.06836h0.04102c0-0.02268 0.0138-0.03516 0.04102-0.03516v-0.0332c0.02721-0.02293 0.04101-0.04568 0.04101-0.06836 0.1056-0.11366 0.27726-0.25066 0.51563-0.41015 0.11906-0.07975 0.25096-0.12532 0.39648-0.13672zm-66.631 6.8652c0.21168 0.02268 0.41051 0.09119 0.5957 0.20508 0.18523 0.09096 0.34428 0.2155 0.47657 0.375 0.34401 0.36427 0.63493 0.76278 0.87304 1.1953 0.21168 0.38703 0.38335 0.85402 0.51563 1.4004 0.13228 0.5464 0.13228 1.1608 0 1.8438-0.0794 0.70574-0.21129 1.264-0.39648 1.6738-0.15877 0.40965-0.3576 0.72925-0.59571 0.95703-0.2117 0.2049-0.42311 0.33992-0.63476 0.40821-0.18525 0.0456-0.32972 0.06835-0.43555 0.06835-0.52918 0.04561-0.95398-0.04565-1.2715-0.27343-0.29108-0.22766-0.5277-0.47679-0.7129-0.75-0.2117-0.31869-0.37073-0.68398-0.47656-1.0938-0.10582-0.3415-0.16015-0.69435-0.16015-1.0586 0-0.36427 0.0138-0.70472 0.04101-1.0234 0.02646-0.36428 0.06623-0.71713 0.11914-1.0586 0.05292-0.27323 0.1179-0.51194 0.19727-0.7168 0.07937-0.22752 0.1463-0.42253 0.19922-0.58203 0.15879-0.40975 0.34303-0.73977 0.55468-0.99023 0.05292-0.04535 0.17223-0.14715 0.35743-0.30664 0.21167-0.1595 0.46283-0.25076 0.7539-0.27344zm15.816 6.3223c-0.98835 0-1.7832 0.6848-1.7832 1.5352 0 0.85036 0.79486 1.5332 1.7832 1.5332 0.98834 0 1.7832-0.68285 1.7832-1.5332 0-0.85035-0.79486-1.5352-1.7832-1.5352zm31.102 0c-0.98835 0-1.7832 0.6848-1.7832 1.5352 0 0.85036 0.79485 1.5332 1.7832 1.5332s1.7832-0.68285 1.7832-1.5332c0-0.85035-0.79485-1.5352-1.7832-1.5352zm-15.619 3.9512-1.9805 4.1621 1.9805 4.1602 1.9824-4.1602-1.9824-4.1621zm-11.518 6.2109-66.135 0.87109 66.135 0.87305v-1.7441zm22.264 0v1.7441l66.137-0.87305-66.137-0.87109z" fill="url(#a)"/>
 </g>
</svg>
