<?xml version="1.0" encoding="UTF-8"?>
<!-- Created with Inkscape (http://www.inkscape.org/) -->
<svg width="824.67" height="61.867" version="1.1" viewBox="0 0 218.19 16.369" xmlns="http://www.w3.org/2000/svg" xmlns:cc="http://creativecommons.org/ns#" xmlns:dc="http://purl.org/dc/elements/1.1/" xmlns:rdf="http://www.w3.org/1999/02/22-rdf-syntax-ns#" xmlns:xlink="http://www.w3.org/1999/xlink">
 <defs>
  <linearGradient id="a" x1="-23.529" x2="291.8" y1="240.19" y2="240.56" gradientUnits="userSpaceOnUse">
   <stop stop-color="#976d39" offset="0"/>
   <stop stop-color="#c0873f" offset=".5"/>
   <stop stop-color="#ac7a3c" offset="1"/>
  </linearGradient>
 </defs>
 <metadata>
  <rdf:RDF>
   <cc:Work rdf:about="">
    <dc:format>image/svg+xml</dc:format>
    <dc:type rdf:resource="http://purl.org/dc/dcmitype/StillImage"/>
    <dc:title/>
   </cc:Work>
  </rdf:RDF>
 </metadata>
 <g transform="translate(-25.608 -232)">
  <g fill="url(#a)">
   <path d="m134.73 238.44c-1.1702 0-2.1033 0.78529-2.1033 1.748 0 0.96308 0.9331 1.748 2.1033 1.748 1.1557 0 2.0888-0.78493 2.0888-1.748 0-0.96273-0.9331-1.748-2.0888-1.748" fill-rule="evenodd"/>
   <path d="m30.44 240.23c-0.3997 0.25188-0.87383 0.38523-1.422 0.41486-0.54822 0.0296-1.0668-0.11818-1.5406-0.4445 0.45896-0.31115 0.96273-0.45896 1.5258-0.42933 0.54822 0.0148 1.0372 0.1778 1.4369 0.45897zm13.704-0.0445c-0.56303 0.2667-1.185 0.45931-1.8373 0.57785-0.6664 0.1337-1.348 0.19297-2.0592 0.19297s-1.422-0.0593-2.1332-0.19297c-0.71085-0.133-1.4076-0.32597-2.0888-0.56304 1.348-0.48895 2.7407-0.74048 4.1928-0.77011 1.4369-0.0148 2.7555 0.23707 3.9257 0.7553zm-13.259-3.0815c-0.17815-0.29598-0.43004-0.48859-0.756-0.59231-0.32561-0.10372-0.63676-0.0741-0.9331 0.10372-0.41487 0.2667-0.62195 0.57785-0.62195 0.93345-0.25224-0.0448-0.42968-0.0148-0.5334 0.0885-0.08925 0.0889-0.11853 0.23742-0.08925 0.41487 0.0448 0.19262 0.14852 0.40005 0.3115 0.63712 0.16263 0.23706 0.37006 0.45931 0.63712 0.66675-0.17815-0.0593-0.3556-0.14817-0.54857-0.2667-0.19226-0.11854-0.38523-0.22225-0.5775-0.32597-0.1778-0.0889-0.35595-0.16298-0.51858-0.20743-0.16298-0.0444-0.31115-0.0444-0.42968 0.0148-0.22225 0.16299-0.37042 0.37077-0.4445 0.60713-0.07408 0.23742-0.07408 0.48931 0 0.74084-0.22225 0.0148-0.40005 0.03-0.56268 0.0744-0.14852 0.0296-0.2226 0.10372-0.20779 0.20708 0.01482 0.13371 0.10372 0.20779 0.25188 0.23707 0.16298 0.0148 0.34078 0.0445 0.56303 0.0593-0.07408 0.25188-0.07408 0.48895 0 0.74083 0.05927 0.23707 0.19262 0.4445 0.40005 0.59267 0.10372 0.0741 0.25188 0.0885 0.42968 0.0445 0.1778-0.0445 0.3556-0.11854 0.54822-0.22225 0.1778-0.0889 0.37042-0.20744 0.5775-0.32597 0.19297-0.13335 0.38523-0.2219 0.56303-0.28152-0.2667 0.23707-0.48895 0.47414-0.65158 0.69639-0.1778 0.23742-0.28152 0.4445-0.32632 0.6223-0.0441 0.1778-0.01482 0.31115 0.08925 0.41486 0.10372 0.10372 0.28116 0.133 0.5334 0.0889-0.01482 0.19262 0.0441 0.37007 0.16263 0.53305 0.1337 0.14817 0.28152 0.28152 0.45932 0.40005 0.29633 0.1778 0.60748 0.22225 0.94791 0.10407 0.32632-0.10407 0.57785-0.3115 0.74119-0.59267 0.05927-0.11853 0.02963-0.23706-0.0889-0.35595-0.11889-0.11818-0.23707-0.14781-0.35595-0.0885-0.133 0.0737-0.28152 0.14782-0.45896 0.22225-0.1778 0.0741-0.34078 0.0444-0.47413-0.0892-0.1778-0.17745-0.23707-0.3997-0.19262-0.68121 0.04445-0.28152 0.22225-0.56304 0.5334-0.84455 0.28116-0.25189 0.54786-0.4445 0.82938-0.54787 0.28152-0.11888 0.51858-0.19297 0.74083-0.25223 0.20779-0.0441 0.38523-0.0885 0.51858-0.133 0.13335-0.0448 0.19262-0.14817 0.1778-0.3115-0.01482-0.16263-0.0889-0.28117-0.2219-0.34079-0.1337-0.0589-0.31115-0.11818-0.51894-0.16263-0.22225-0.0593-0.45896-0.1337-0.74048-0.25188-0.28152-0.10372-0.54857-0.28152-0.82973-0.53305-0.31115-0.26705-0.48895-0.53375-0.51858-0.83008-0.02963-0.29634 0.04445-0.53305 0.22225-0.7112 0.13335-0.133 0.28152-0.16263 0.4445-0.0885 0.16263 0.0741 0.32597 0.14781 0.47378 0.23707 0.10407 0.0444 0.20779 0.0148 0.34114-0.0893 0.13335-0.11818 0.16298-0.23671 0.10372-0.3556zm14.815 3.0815c-0.10407-0.133-0.29633-0.28152-0.5782-0.42933-0.28152-0.14817-0.60748-0.28152-0.96273-0.41487-0.37042-0.11853-0.75565-0.22225-1.1702-0.31115-0.4004-0.0741-0.77047-0.11818-1.0964-0.11818 0.29633-0.23742 0.51858-0.51894 0.65158-0.83009 0.1337-0.31079 0.1778-0.57785 0.1337-0.81456-0.0448-0.23707-0.17815-0.41487-0.40005-0.51858-0.20779-0.11854-0.50412-0.0889-0.87418 0.0741-0.01482-0.0741-0.04445-0.25188-0.0889-0.5334s-0.11853-0.56303-0.22225-0.84455c-0.10372-0.28116-0.23707-0.5334-0.41487-0.72602-0.16298-0.20708-0.38523-0.25153-0.65193-0.16263-0.3997-0.51893-0.87383-0.78528-1.4072-0.8001-0.54822 0-0.99272 0.16299-1.3335 0.50377-0.2667 0.2667-0.41451 0.57785-0.42933 0.91828-0.02999 0.35595 0.07373 0.63712 0.28152 0.84455 0.14781 0.14817 0.28152 0.25188 0.38488 0.29633 0.11853 0.0593 0.25188 0.10372 0.41487 0.14817 0.04445 0.0148 0.10372 0 0.1778-0.0444 0.07408-0.0445 0.13335-0.10372 0.19262-0.16298 0.07408-0.0741 0.13335-0.13335 0.1778-0.20744 0.02963-0.0593 0.01482-0.11853-0.04445-0.14781-0.32597-0.17815-0.50377-0.37042-0.54822-0.5782-0.04445-0.20744 0.01482-0.40005 0.1778-0.59267 0.16298-0.19226 0.38523-0.25153 0.68121-0.17745 0.29669 0.0737 0.47449 0.23707 0.5334 0.50342-0.20708 0.0889-0.29633 0.23706-0.2667 0.42968 0.01482 0.20743 0.08925 0.41522 0.19297 0.60748 0.11853 0.20744 0.23707 0.38524 0.38488 0.56304 0.14817 0.1778 0.25188 0.29598 0.29669 0.34078-0.2226 0.0148-0.4004 0.0741-0.51858 0.19262-0.10407 0.10371-0.14817 0.25153-0.13335 0.41451 0 0.1778 0.07408 0.3556 0.20743 0.54822 0.133 0.19297 0.32561 0.37041 0.59231 0.54821-0.85901 0.0296-1.6739 0.11854-2.4592 0.25189s-1.6002 0.41486-2.4296 0.82973c-0.31115-0.16334-0.6223-0.40005-0.94827-0.69638-0.34078-0.29634-0.56268-0.65194-0.69638-1.052 0.28187-0.10371 0.59302-0.25188 0.91863-0.45896 0.32597-0.20743 0.50377-0.45932 0.5334-0.75565 0.02963-0.2667-0.01482-0.51858-0.13335-0.74083-0.10372-0.23742-0.2667-0.47378-0.47378-0.7112-0.1337-0.19262-0.32632-0.28152-0.5782-0.28152-0.25153 0-0.50341 0.0889-0.74048 0.2667-0.11889-0.11853-0.22225-0.2667-0.34078-0.4445-0.10372-0.16298-0.19262-0.34043-0.23707-0.5334-0.04445-0.19262-0.05927-0.38488-0.04445-0.56268s0.0889-0.32597 0.22225-0.45896c0.22225-0.22261 0.48895-0.34114 0.8001-0.35596 0.29633 0 0.51823 0.0741 0.68157 0.22225 0.08855 0.0889 0.133 0.19297 0.14781 0.32597 0.01482 0.13335 0.02963 0.2667 0.02963 0.38523 0 0.11854 0 0.2219 0.02963 0.31115 0.01517 0.10337 0.08925 0.16263 0.20743 0.19262 0.14852 0.0296 0.28152-0.0148 0.38523-0.14817 0.10372-0.1337 0.16298-0.31115 0.20743-0.5334 0.02963-0.20743 0.02963-0.42933-0.01482-0.65193-0.04445-0.22225-0.14817-0.41487-0.31115-0.57785-0.38488-0.38523-0.84455-0.56303-1.3924-0.51823-0.5334 0.0296-0.99272 0.23707-1.3483 0.59231-0.37042 0.37042-0.63712 0.75601-0.8001 1.1705s-0.23671 0.82973-0.23671 1.2446c0 0.41451 0.05927 0.81456 0.16263 1.1998 0.11889 0.37041 0.2667 0.69638 0.45967 0.9779 0.3997 0.63711 0.82938 1.2146 1.3032 1.7036 0.45967 0.50377 0.96308 0.94827 1.5261 1.348-1.0813 0.71156-2.0147 1.7039-2.8145 2.9778-0.17815 0.26705-0.32597 0.59267-0.44485 0.9779-0.133 0.37042-0.19226 0.77047-0.17745 1.1705 0 0.41451 0.08855 0.82973 0.25153 1.2446 0.16298 0.41451 0.42968 0.79974 0.8001 1.1702 0.3556 0.3556 0.8001 0.54822 1.3335 0.57785 0.53305 0.0296 1.0072-0.13335 1.4072-0.50377 0.14817-0.14816 0.23707-0.34078 0.29633-0.57785 0.04445-0.22225 0.05927-0.4445 0.01482-0.65158-0.04445-0.20743-0.11853-0.37077-0.22225-0.50376-0.10372-0.13371-0.23671-0.19262-0.38523-0.16334-0.11818 0.0296-0.17745 0.0892-0.19226 0.17815-0.01517 0.0889-0.02999 0.19227-0.02999 0.31115 0 0.11818 0 0.25153-0.01482 0.38488s-0.07408 0.23707-0.16298 0.32632c-0.16298 0.16263-0.3997 0.23672-0.69603 0.23672-0.31115-0.0148-0.57785-0.11854-0.8001-0.34079-0.13335-0.13335-0.20743-0.29633-0.22225-0.47413-0.01482-0.1778 0.01482-0.35525 0.05927-0.54822 0.05927-0.17744 0.13335-0.3556 0.23707-0.54786 0.10372-0.1778 0.2219-0.3115 0.3556-0.41487 0.23707 0.1778 0.47413 0.25189 0.72602 0.23707 0.23671-0.0296 0.44415-0.1337 0.59267-0.31115 0.19226-0.22225 0.34043-0.4445 0.45896-0.68157 0.11853-0.23706 0.16298-0.48895 0.13335-0.75565-0.02963-0.29633-0.20743-0.54821-0.5334-0.75529-0.32561-0.20744-0.63676-0.3556-0.91828-0.42969 0.14817-0.38523 0.38488-0.72601 0.72566-1.0372 0.32597-0.31115 0.63712-0.54822 0.93345-0.69639 0.81492 0.40005 1.6147 0.66675 2.3999 0.8001s1.615 0.20744 2.4888 0.22261c-0.2667 0.17744-0.47413 0.37006-0.60713 0.56268-0.13335 0.19261-0.19297 0.37041-0.20743 0.54821 0 0.16263 0.0441 0.31115 0.14817 0.42933 0.10336 0.11889 0.26635 0.17816 0.48895 0.19262-0.0448 0.0448-0.14852 0.16298-0.29669 0.32597-0.16263 0.17815-0.29633 0.3556-0.3997 0.56303-0.10372 0.20743-0.16334 0.41452-0.17815 0.60748-0.01482 0.19262 0.08925 0.32597 0.29669 0.41487-0.05927 0.29633-0.23707 0.48895-0.5334 0.54822-0.29633 0.0593-0.5334-0.0148-0.69638-0.20744-0.1778-0.17815-0.23707-0.37041-0.19262-0.57785 0.04445-0.20743 0.22225-0.40005 0.54822-0.57785 0.05927-0.0293 0.0889-0.0741 0.05927-0.14816-0.01482-0.0593-0.05927-0.13335-0.11853-0.19262-0.07408-0.0741-0.14817-0.13335-0.23707-0.1778-0.07408-0.0593-0.14817-0.0737-0.19262-0.0593-0.16298 0.0445-0.29633 0.0889-0.41487 0.14817-0.11818 0.0593-0.25188 0.16298-0.3997 0.31115-0.19297 0.19262-0.28152 0.47413-0.2667 0.84455 0.02928 0.3556 0.16263 0.66675 0.41451 0.91863 0.34078 0.34079 0.78528 0.50377 1.3335 0.48895 0.54822-0.0148 1.0224-0.28187 1.422-0.8001 0.2667 0.0889 0.48895 0.0296 0.66675-0.16333 0.16298-0.20708 0.31115-0.44415 0.41487-0.72567 0.10372-0.28151 0.1778-0.56303 0.22225-0.82973 0.05927-0.28152 0.08855-0.45932 0.10336-0.5334 0.37077 0.16298 0.65229 0.19262 0.85937 0.0889 0.19262-0.11853 0.32597-0.29633 0.37077-0.53305 0.05891-0.25188 0.01482-0.5334-0.11889-0.84455-0.13335-0.31079-0.34043-0.57785-0.63676-0.81491 0.32597 0 0.68121-0.0444 1.0961-0.13335 0.40005-0.0741 0.78528-0.1778 1.1557-0.31115 0.37006-0.11854 0.68157-0.25189 0.96308-0.3997 0.28152-0.14852 0.47378-0.29633 0.56303-0.44485"/>
   <path d="m134.65 239.33-90.709 0.63712v0.38523l90.709 0.69603v-1.7184" fill-rule="evenodd"/>
   <path d="m134.76 241.05 90.709-0.63676v-0.38523l-90.709-0.69639v1.7184" fill-rule="evenodd"/>
   <path d="m238.97 240.14c0.41486-0.25189 0.889-0.38488 1.4372-0.41452 0.54822-0.0296 1.0516 0.11854 1.5258 0.44415-0.45932 0.31115-0.96274 0.45967-1.5258 0.43004-0.54821-0.0148-1.0224-0.1778-1.4372-0.45967zm-13.703 0.0444c0.57785-0.2667 1.185-0.45897 1.8369-0.59267 0.6664-0.11818 1.3476-0.17745 2.0592-0.17745 0.7112 0 1.422 0.0593 2.1329 0.19262 0.71155 0.13335 1.4224 0.32561 2.104 0.56268-1.3628 0.4893-2.7559 0.74083-4.1924 0.77047-1.452 0.0152-2.7555-0.23707-3.9405-0.75565zm13.259 3.0667c0.1778 0.29634 0.42933 0.50377 0.77047 0.60784 0.32526 0.10336 0.63641 0.0737 0.93309-0.11889 0.41452-0.26634 0.6223-0.57749 0.6223-0.93309 0.25153 0.0444 0.42933 0.0148 0.53305-0.0893 0.0889-0.0889 0.10372-0.22189 0.0741-0.39969-0.0445-0.19262-0.13335-0.40041-0.29633-0.63712-0.16264-0.23707-0.38489-0.45932-0.65194-0.66675 0.1778 0.0596 0.37077 0.14817 0.56339 0.2667 0.19226 0.11889 0.37006 0.22225 0.56268 0.32597 0.17745 0.0892 0.3556 0.16298 0.51858 0.20743 0.16263 0.0445 0.3115 0.0296 0.42969-0.0296 0.22225-0.16263 0.37006-0.3556 0.44485-0.59267 0.0737-0.23671 0.0737-0.48895 0-0.74083 0.22154-0.0148 0.41416-0.0293 0.56268-0.0737 0.16263-0.0444 0.2219-0.10407 0.20708-0.20779-0.0148-0.133-0.0889-0.2219-0.25153-0.23707-0.14852-0.0296-0.34114-0.0445-0.56268-0.0593 0.0741-0.25189 0.0741-0.50342 0.0148-0.74048-0.0748-0.25153-0.20779-0.4445-0.41522-0.59267-0.10372-0.0741-0.25224-0.0889-0.42968-0.0445-0.1778 0.0445-0.35596 0.11853-0.54822 0.20743-0.1778 0.10372-0.37042 0.20779-0.5775 0.34079-0.19261 0.11818-0.38558 0.22225-0.56303 0.28151 0.26635-0.23706 0.48895-0.47378 0.65158-0.7112 0.1778-0.22225 0.28152-0.42968 0.32597-0.60748 0.0445-0.17745 0.0148-0.31115-0.0889-0.41451-0.10372-0.10407-0.28117-0.13371-0.53305-0.0893 0.0148-0.19226-0.0445-0.37041-0.16334-0.53304-0.13335-0.14817-0.28116-0.29634-0.45896-0.41487-0.29633-0.1778-0.60784-0.20743-0.94791-0.0889-0.32632 0.10372-0.57785 0.29633-0.74119 0.59267-0.0593 0.11853-0.0296 0.23706 0.0892 0.35524 0.11853 0.11889 0.23672 0.14852 0.35525 0.0889 0.13335-0.0741 0.29668-0.14781 0.47378-0.22189 0.1778-0.0741 0.32632-0.0444 0.45967 0.0889 0.17744 0.1778 0.25153 0.40005 0.20708 0.68121-0.0444 0.28187-0.2219 0.56303-0.5334 0.84455-0.28081 0.25188-0.56268 0.42968-0.84385 0.54822-0.26705 0.10371-0.51893 0.19261-0.72601 0.23671-0.2226 0.0596-0.4004 0.10407-0.53305 0.14852-0.1337 0.0441-0.19297 0.14817-0.17815 0.3108 0.0148 0.16333 0.0889 0.28187 0.22225 0.34078 0.133 0.0596 0.3108 0.11889 0.5334 0.16298 0.20708 0.0593 0.45896 0.13335 0.72566 0.25224 0.28152 0.10336 0.56304 0.28116 0.8442 0.53305 0.31115 0.25188 0.47413 0.5334 0.50376 0.82973 0.0296 0.29633-0.0445 0.5334-0.22189 0.71085-0.13335 0.1337-0.28187 0.16333-0.44486 0.0892-0.16227-0.0744-0.31044-0.16298-0.47377-0.25188-0.10372-0.0445-0.20744 0-0.34044 0.10336-0.11888 0.11853-0.16333 0.2226-0.10371 0.34078zm-14.815-3.0666c0.10371 0.1337 0.29598 0.28151 0.57785 0.42968 0.28081 0.14817 0.60713 0.28187 0.9779 0.41487 0.35524 0.11853 0.74048 0.22225 1.1553 0.31115 0.3997 0.0744 0.77012 0.11853 1.0964 0.11853-0.29669 0.23742-0.50377 0.50377-0.63747 0.81492-0.13335 0.31115-0.1778 0.59266-0.13335 0.82973 0.0445 0.23671 0.16298 0.41451 0.38523 0.51823 0.20743 0.11853 0.50412 0.0889 0.87418-0.0741 0.0152 0.0741 0.0448 0.25188 0.0889 0.5334 0.0445 0.28151 0.11854 0.56303 0.2219 0.84455 0.10372 0.28151 0.23707 0.51823 0.41522 0.72601 0.16263 0.19262 0.38523 0.25189 0.65193 0.16263 0.40005 0.51859 0.87419 0.78564 1.4224 0.78564 0.5334 0.0148 0.97755-0.14817 1.318-0.48895 0.2667-0.2667 0.41522-0.57785 0.43004-0.9338 0.0296-0.34043-0.0593-0.62195-0.28187-0.82938-0.14817-0.14817-0.26635-0.25189-0.38488-0.29634-0.10372-0.0593-0.25188-0.10371-0.41487-0.14781-0.0444-0.0152-0.10336 0-0.17815 0.0441-0.0737 0.0445-0.133 0.10371-0.19226 0.16298-0.0741 0.0741-0.13335 0.13335-0.16299 0.20743-0.0444 0.0593-0.0296 0.11889 0.0296 0.14852 0.32561 0.17745 0.50376 0.37007 0.54821 0.5775 0.0445 0.20743-0.0148 0.3997-0.17745 0.59267-0.16333 0.19261-0.38558 0.25188-0.68191 0.17744-0.29634-0.0741-0.47449-0.23671-0.53376-0.50341 0.20779-0.0889 0.29669-0.23707 0.28187-0.4445-0.0296-0.19262-0.0889-0.3997-0.20779-0.59267-0.10371-0.20743-0.23636-0.38523-0.38452-0.57749-0.14782-0.17816-0.25224-0.28152-0.29669-0.32632 0.2226-0.0145 0.4004-0.0885 0.51859-0.20708 0.10336-0.10372 0.14781-0.23742 0.14781-0.40005-0.0148-0.1778-0.0889-0.3556-0.22155-0.54822-0.13335-0.19262-0.32631-0.38523-0.59266-0.56303 0.85866-0.0293 1.6739-0.10372 2.4589-0.23672 0.80045-0.1337 1.6002-0.41522 2.4299-0.82973 0.3108 0.16263 0.63712 0.3997 0.96308 0.69603 0.32597 0.29633 0.54787 0.63676 0.68122 1.0372-0.28152 0.10371-0.5775 0.2667-0.90347 0.47413-0.32596 0.20708-0.50411 0.45896-0.53375 0.7553-0.0296 0.2667 0 0.51858 0.11854 0.74083 0.10406 0.23707 0.26705 0.47413 0.47413 0.7112 0.13335 0.19262 0.32632 0.28152 0.57785 0.28152 0.25188 0 0.50377-0.0889 0.74118-0.2667 0.11819 0.11853 0.23672 0.2667 0.34044 0.42933 0.11818 0.17815 0.19296 0.35595 0.23706 0.54821 0.0445 0.19297 0.0593 0.38524 0.0445 0.56304s-0.0885 0.32596-0.22225 0.45931c-0.22225 0.22261-0.4893 0.34079-0.78528 0.3556-0.3115 0-0.53305-0.0741-0.68122-0.22225-0.0889-0.0889-0.14851-0.19261-0.16333-0.32596-0.0148-0.13335-0.0148-0.2667-0.0148-0.38524 0-0.11853-0.0148-0.22189-0.0445-0.32561-0.0148-0.0892-0.0885-0.14852-0.20708-0.1778-0.14817-0.0296-0.26706 0.0148-0.37077 0.14817-0.10337 0.13335-0.17745 0.31115-0.2219 0.51858-0.0296 0.2219-0.0296 0.44415 0.0148 0.6664 0.0445 0.22225 0.14782 0.41486 0.3108 0.57785 0.38558 0.38523 0.8449 0.56303 1.3928 0.51858 0.54821-0.0296 0.99271-0.23707 1.348-0.59267 0.37042-0.37041 0.63747-0.75565 0.80045-1.1702 0.16263-0.41487 0.23672-0.82973 0.23672-1.2446s-0.0445-0.81492-0.16299-1.2002c-0.10336-0.37042-0.2667-0.71085-0.45931-0.99236-0.3997-0.63712-0.82903-1.2002-1.2887-1.6891-0.47413-0.50377-0.97755-0.94792-1.5258-1.348 1.0664-0.7112 1.9999-1.7039 2.7996-2.9778 0.1778-0.28187 0.32632-0.59267 0.45932-0.9779 0.11853-0.37042 0.1778-0.77047 0.1778-1.1702-0.0148-0.41486-0.10372-0.82973-0.26635-1.2446-0.16334-0.41486-0.43004-0.8001-0.8001-1.1702-0.35525-0.3556-0.8001-0.54822-1.3335-0.57785-0.53305-0.03-0.99237 0.133-1.3928 0.50341-0.14816 0.14817-0.25153 0.34079-0.3108 0.56304-0.0445 0.23706-0.0445 0.45931 0 0.66675 0.0444 0.20743 0.11854 0.37041 0.2219 0.50376 0.10372 0.133 0.2226 0.19262 0.37077 0.16263 0.11853-0.0296 0.19227-0.0889 0.20708-0.17744 0.0148-0.0889 0.0148-0.19297 0.0148-0.31115 0-0.11854 0.0148-0.25189 0.0296-0.38524s0.0593-0.23706 0.14852-0.32596c0.16298-0.16299 0.39935-0.25189 0.71085-0.23707 0.29598 0 0.56303 0.11853 0.78528 0.34078 0.1337 0.13335 0.20744 0.29634 0.22225 0.47414 0.0148 0.1778 0 0.3556-0.0589 0.54786-0.0444 0.17815-0.13405 0.3556-0.23742 0.53375-0.10371 0.1778-0.22225 0.32597-0.35524 0.42933-0.23742-0.1778-0.47449-0.25153-0.72637-0.23706-0.23672 0.0296-0.42969 0.11853-0.57785 0.29633-0.19227 0.2226-0.35525 0.45932-0.47414 0.69638-0.11853 0.23707-0.16263 0.48895-0.13335 0.75565 0.0296 0.29598 0.20744 0.54822 0.53376 0.75565 0.32596 0.20744 0.63676 0.3556 0.91828 0.42933-0.14852 0.38524-0.38488 0.72602-0.7112 1.0372-0.32562 0.31115-0.63712 0.54822-0.9331 0.69638-0.81492-0.40005-1.6147-0.66675-2.4151-0.8001-0.78493-0.13335-1.615-0.20743-2.4885-0.22225 0.26635-0.1778 0.47413-0.37006 0.60748-0.56303 0.13265-0.19226 0.20673-0.37006 0.20673-0.54786 0.0148-0.16334-0.0444-0.31115-0.14781-0.43004-0.10337-0.11818-0.26635-0.19226-0.48895-0.20743 0.0444-0.0441 0.14887-0.14782 0.3115-0.3108 0.14817-0.1778 0.28081-0.37042 0.38453-0.57785 0.10407-0.20743 0.16333-0.40005 0.17815-0.59267 0.0148-0.19261-0.0889-0.34043-0.29669-0.42933 0.0593-0.29668 0.23742-0.47413 0.53376-0.5334 0.29633-0.0593 0.5334 0.0148 0.69603 0.20708 0.17815 0.17816 0.23742 0.37042 0.19297 0.57785-0.0445 0.20744-0.22261 0.40005-0.54822 0.57821-0.0593 0.0296-0.0741 0.0737-0.0593 0.14781 0.0296 0.0593 0.0593 0.11853 0.11854 0.1778 0.0741 0.0741 0.16298 0.14817 0.23671 0.19226 0.0896 0.0596 0.14887 0.0744 0.19297 0.0596 0.16298-0.0445 0.29633-0.10371 0.41451-0.16298 0.11889-0.0593 0.25189-0.16298 0.40005-0.31115 0.20779-0.19262 0.28187-0.45932 0.26706-0.82973-0.0296-0.35525-0.16334-0.6664-0.41522-0.91828-0.34043-0.34079-0.78458-0.50377-1.3328-0.48895-0.54857 0.0148-1.0224 0.28151-1.4224 0.8001-0.26705-0.0889-0.48895-0.0296-0.66675 0.16263-0.16333 0.20743-0.29668 0.4445-0.4004 0.72601-0.10336 0.28152-0.19226 0.56304-0.23636 0.82974-0.0596 0.28151-0.0892 0.4445-0.10407 0.51858-0.37007-0.16298-0.65193-0.1778-0.85902-0.0741-0.19296 0.11853-0.32631 0.29633-0.37076 0.5334-0.0593 0.25153-0.0148 0.5334 0.11853 0.84419 0.1337 0.31115 0.3556 0.57785 0.65228 0.81492-0.32631 0-0.69673 0.0448-1.1112 0.11853-0.40005 0.0889-0.78528 0.19262-1.156 0.31115-0.35525 0.13335-0.68156 0.26635-0.96237 0.41487-0.28188 0.14781-0.47414 0.29633-0.56304 0.44415"/>
  </g>
 </g>
</svg>
