<?xml version="1.0" encoding="UTF-8" standalone="no"?>
<!-- Created with Inkscape (http://www.inkscape.org/) -->

<svg
   xmlns:dc="http://purl.org/dc/elements/1.1/"
   xmlns:cc="http://creativecommons.org/ns#"
   xmlns:rdf="http://www.w3.org/1999/02/22-rdf-syntax-ns#"
   xmlns:svg="http://www.w3.org/2000/svg"
   xmlns="http://www.w3.org/2000/svg"
   xmlns:xlink="http://www.w3.org/1999/xlink"
   xmlns:sodipodi="http://sodipodi.sourceforge.net/DTD/sodipodi-0.dtd"
   xmlns:inkscape="http://www.inkscape.org/namespaces/inkscape"
   width="824.66614"
   height="61.866707"
   viewBox="0 0 218.19292 16.3689"
   version="1.1"
   id="svg8"
   inkscape:version="0.92.4 (unknown)"
   sodipodi:docname="section-divider2.svg">
  <defs
     id="defs2">
    <linearGradient
       inkscape:collect="always"
       id="linearGradient2271">
      <stop
         style="stop-color:#a37136;stop-opacity:1"
         offset="0"
         id="stop2265" />
      <stop
         id="stop2267"
         offset="0.5"
         style="stop-color:#c59455;stop-opacity:1" />
      <stop
         style="stop-color:#d39d5d;stop-opacity:1"
         offset="1"
         id="stop2269" />
    </linearGradient>
    <linearGradient
       inkscape:collect="always"
       xlink:href="#linearGradient2271"
       id="linearGradient5375"
       x1="-122.72597"
       y1="170.31424"
       x2="357.92316"
       y2="170.31424"
       gradientUnits="userSpaceOnUse" />
    <linearGradient
       inkscape:collect="always"
       xlink:href="#linearGradient2271"
       id="linearGradient5532"
       x1="-20.882742"
       y1="240.18626"
       x2="289.91434"
       y2="240.18626"
       gradientUnits="userSpaceOnUse" />
    <linearGradient
       inkscape:collect="always"
       xlink:href="#linearGradient2271"
       id="linearGradient5534"
       gradientUnits="userSpaceOnUse"
       x1="-20.882742"
       y1="240.18626"
       x2="289.91434"
       y2="240.18626" />
    <linearGradient
       inkscape:collect="always"
       xlink:href="#linearGradient2271"
       id="linearGradient5536"
       gradientUnits="userSpaceOnUse"
       x1="-20.882742"
       y1="240.18626"
       x2="289.91434"
       y2="240.18626" />
    <linearGradient
       inkscape:collect="always"
       xlink:href="#linearGradient2271"
       id="linearGradient5538"
       gradientUnits="userSpaceOnUse"
       x1="-20.882742"
       y1="240.18626"
       x2="289.91434"
       y2="240.18626" />
    <linearGradient
       inkscape:collect="always"
       xlink:href="#linearGradient2271"
       id="linearGradient5540"
       gradientUnits="userSpaceOnUse"
       x1="-20.882742"
       y1="240.18626"
       x2="289.91434"
       y2="240.18626" />
    <linearGradient
       inkscape:collect="always"
       xlink:href="#linearGradient2271"
       id="linearGradient5542"
       gradientUnits="userSpaceOnUse"
       x1="-20.882742"
       y1="240.18626"
       x2="289.91434"
       y2="240.18626" />
  </defs>
  <sodipodi:namedview
     id="base"
     pagecolor="#ffffff"
     bordercolor="#666666"
     borderopacity="1.0"
     inkscape:pageopacity="0.0"
     inkscape:pageshadow="2"
     inkscape:zoom="0.7"
     inkscape:cx="297.67652"
     inkscape:cy="-258.36792"
     inkscape:document-units="px"
     inkscape:current-layer="layer1"
     showgrid="false"
     units="px"
     inkscape:showpageshadow="false"
     borderlayer="false"
     inkscape:window-width="1920"
     inkscape:window-height="1025"
     inkscape:window-x="0"
     inkscape:window-y="27"
     inkscape:window-maximized="1"
     fit-margin-top="0"
     fit-margin-left="0"
     fit-margin-right="0"
     fit-margin-bottom="0" />
  <metadata
     id="metadata5">
    <rdf:RDF>
      <cc:Work
         rdf:about="">
        <dc:format>image/svg+xml</dc:format>
        <dc:type
           rdf:resource="http://purl.org/dc/dcmitype/StillImage" />
        <dc:title></dc:title>
      </cc:Work>
    </rdf:RDF>
  </metadata>
  <g
     inkscape:label="Layer 1"
     inkscape:groupmode="layer"
     id="layer1"
     transform="translate(-25.608329,-232.00182)">
    <g
       id="g5524"
       style="fill:url(#linearGradient5532);fill-opacity:1">
      <path
         d="m 134.73423,238.43795 c -1.17016,0 -2.10326,0.78529 -2.10326,1.74802 0,0.96308 0.9331,1.74801 2.10326,1.74801 1.1557,0 2.0888,-0.78493 2.0888,-1.74801 0,-0.96273 -0.9331,-1.74802 -2.0888,-1.74802 v 0"
         style="fill:url(#linearGradient5534);fill-opacity:1;fill-rule:evenodd;stroke:none;stroke-width:0.03527778"
         id="path120"
         inkscape:connector-curvature="0" />
      <path
         d="m 30.439714,240.23042 c -0.399697,0.25188 -0.87383,0.38523 -1.422047,0.41486 -0.548217,0.0296 -1.0668,-0.11818 -1.54058,-0.4445 0.458963,-0.31115 0.96273,-0.45896 1.525763,-0.42933 0.548217,0.0148 1.037167,0.1778 1.436864,0.45897 z m 13.704006,-0.0445 c -0.563034,0.2667 -1.184981,0.45931 -1.837267,0.57785 -0.666397,0.1337 -1.347964,0.19297 -2.059164,0.19297 -0.7112,0 -1.422047,-0.0593 -2.133247,-0.19297 -0.710847,-0.133 -1.407583,-0.32597 -2.088797,-0.56304 1.347964,-0.48895 2.74073,-0.74048 4.192764,-0.77011 1.436864,-0.0148 2.755547,0.23707 3.925711,0.7553 z M 30.884567,237.1044 c -0.178153,-0.29598 -0.430036,-0.48859 -0.756003,-0.59231 -0.325614,-0.10372 -0.636764,-0.0741 -0.933097,0.10372 -0.414867,0.2667 -0.621947,0.57785 -0.621947,0.93345 -0.252236,-0.0448 -0.429683,-0.0148 -0.5334,0.0885 -0.08925,0.0889 -0.118534,0.23742 -0.08925,0.41487 0.0448,0.19262 0.14852,0.40005 0.311503,0.63712 0.16263,0.23706 0.370064,0.45931 0.637117,0.66675 -0.178153,-0.0593 -0.3556,-0.14817 -0.54857,-0.2667 -0.192264,-0.11854 -0.385233,-0.22225 -0.577497,-0.32597 -0.1778,-0.0889 -0.355953,-0.16298 -0.518583,-0.20743 -0.162984,-0.0444 -0.31115,-0.0444 -0.429684,0.0148 -0.22225,0.16299 -0.370416,0.37077 -0.4445,0.60713 -0.07408,0.23742 -0.07408,0.48931 0,0.74084 -0.22225,0.0148 -0.40005,0.03 -0.56268,0.0744 -0.14852,0.0296 -0.222603,0.10372 -0.207786,0.20708 0.01482,0.13371 0.103716,0.20779 0.251883,0.23707 0.162983,0.0148 0.340783,0.0445 0.563033,0.0593 -0.07408,0.25188 -0.07408,0.48895 0,0.74083 0.05927,0.23707 0.192617,0.4445 0.40005,0.59267 0.103717,0.0741 0.251884,0.0885 0.429684,0.0445 0.1778,-0.0445 0.3556,-0.11854 0.548216,-0.22225 0.1778,-0.0889 0.370417,-0.20744 0.577497,-0.32597 0.19297,-0.13335 0.385234,-0.2219 0.563034,-0.28152 -0.2667,0.23707 -0.48895,0.47414 -0.651581,0.69639 -0.1778,0.23742 -0.281517,0.4445 -0.326319,0.6223 -0.0441,0.1778 -0.01482,0.31115 0.08925,0.41486 0.103716,0.10372 0.281163,0.133 0.5334,0.0889 -0.01482,0.19262 0.0441,0.37007 0.16263,0.53305 0.133703,0.14817 0.281517,0.28152 0.459317,0.40005 0.296333,0.1778 0.607483,0.22225 0.947914,0.10407 0.326319,-0.10407 0.57785,-0.3115 0.741186,-0.59267 0.05927,-0.11853 0.02963,-0.23706 -0.0889,-0.35595 -0.118886,-0.11818 -0.237067,-0.14781 -0.355953,-0.0885 -0.132997,0.0737 -0.281517,0.14782 -0.458964,0.22225 -0.1778,0.0741 -0.340783,0.0444 -0.474133,-0.0892 -0.1778,-0.17745 -0.237067,-0.3997 -0.192617,-0.68121 0.04445,-0.28152 0.22225,-0.56304 0.5334,-0.84455 0.281164,-0.25189 0.547864,-0.4445 0.829381,-0.54787 0.281516,-0.11888 0.518583,-0.19297 0.740833,-0.25223 0.207786,-0.0441 0.385233,-0.0885 0.518583,-0.133 0.13335,-0.0448 0.192617,-0.14817 0.1778,-0.3115 -0.01482,-0.16263 -0.0889,-0.28117 -0.221897,-0.34079 -0.133703,-0.0589 -0.31115,-0.11818 -0.518936,-0.16263 -0.22225,-0.0593 -0.458964,-0.1337 -0.740481,-0.25188 -0.281516,-0.10372 -0.548569,-0.28152 -0.829733,-0.53305 -0.31115,-0.26705 -0.48895,-0.53375 -0.518583,-0.83008 -0.02963,-0.29634 0.04445,-0.53305 0.22225,-0.7112 0.13335,-0.133 0.281516,-0.16263 0.4445,-0.0885 0.16263,0.0741 0.325966,0.14781 0.47378,0.23707 0.10407,0.0444 0.207786,0.0148 0.341136,-0.0893 0.13335,-0.11818 0.162984,-0.23671 0.103717,-0.3556 z m 14.814903,3.08152 c -0.10407,-0.133 -0.296334,-0.28152 -0.578203,-0.42933 -0.281517,-0.14817 -0.607483,-0.28152 -0.962731,-0.41487 -0.370416,-0.11853 -0.75565,-0.22225 -1.170163,-0.31115 -0.400403,-0.0741 -0.770467,-0.11818 -1.096434,-0.11818 0.296334,-0.23742 0.518584,-0.51894 0.651581,-0.83009 0.133703,-0.31079 0.1778,-0.57785 0.133703,-0.81456 -0.0448,-0.23707 -0.178153,-0.41487 -0.40005,-0.51858 -0.207787,-0.11854 -0.50412,-0.0889 -0.874184,0.0741 -0.01482,-0.0741 -0.04445,-0.25188 -0.0889,-0.5334 -0.04445,-0.28152 -0.118533,-0.56303 -0.22225,-0.84455 -0.103717,-0.28116 -0.237067,-0.5334 -0.414867,-0.72602 -0.162983,-0.20708 -0.385233,-0.25153 -0.651933,-0.16263 -0.399697,-0.51893 -0.873831,-0.78528 -1.407231,-0.8001 -0.548216,0 -0.992716,0.16299 -1.333499,0.50377 -0.2667,0.2667 -0.414514,0.57785 -0.429331,0.91828 -0.02999,0.35595 0.07373,0.63712 0.281517,0.84455 0.147814,0.14817 0.281516,0.25188 0.38488,0.29633 0.118533,0.0593 0.251883,0.10372 0.414867,0.14817 0.04445,0.0148 0.103716,0 0.1778,-0.0444 0.07408,-0.0445 0.13335,-0.10372 0.192616,-0.16298 0.07408,-0.0741 0.13335,-0.13335 0.1778,-0.20744 0.02963,-0.0593 0.01482,-0.11853 -0.04445,-0.14781 -0.325966,-0.17815 -0.503766,-0.37042 -0.548216,-0.5782 -0.04445,-0.20744 0.01482,-0.40005 0.1778,-0.59267 0.162983,-0.19226 0.385233,-0.25153 0.681214,-0.17745 0.296686,0.0737 0.474486,0.23707 0.5334,0.50342 -0.207081,0.0889 -0.296334,0.23706 -0.2667,0.42968 0.01482,0.20743 0.08925,0.41522 0.192969,0.60748 0.118533,0.20744 0.237067,0.38524 0.384881,0.56304 0.148166,0.1778 0.251883,0.29598 0.296686,0.34078 -0.222603,0.0148 -0.400403,0.0741 -0.518584,0.19262 -0.104069,0.10371 -0.148166,0.25153 -0.13335,0.41451 0,0.1778 0.07408,0.3556 0.207434,0.54822 0.132997,0.19297 0.325614,0.37041 0.592314,0.54821 -0.859014,0.0296 -1.673931,0.11854 -2.459214,0.25189 -0.785283,0.13335 -1.6002,0.41486 -2.429581,0.82973 -0.31115,-0.16334 -0.6223,-0.40005 -0.948266,-0.69638 -0.340784,-0.29634 -0.562681,-0.65194 -0.696384,-1.05199 0.28187,-0.10371 0.59302,-0.25188 0.918634,-0.45896 0.325966,-0.20743 0.503766,-0.45932 0.5334,-0.75565 0.02963,-0.2667 -0.01482,-0.51858 -0.13335,-0.74083 -0.103717,-0.23742 -0.2667,-0.47378 -0.473781,-0.7112 -0.133703,-0.19262 -0.326319,-0.28152 -0.578203,-0.28152 -0.25153,0 -0.503413,0.0889 -0.74048,0.2667 -0.118886,-0.11853 -0.22225,-0.2667 -0.340783,-0.4445 -0.103717,-0.16298 -0.192617,-0.34043 -0.237067,-0.5334 -0.04445,-0.19262 -0.05927,-0.38488 -0.04445,-0.56268 0.01482,-0.1778 0.0889,-0.32597 0.22225,-0.45896 0.22225,-0.22261 0.48895,-0.34114 0.8001,-0.35596 0.296333,0 0.51823,0.0741 0.681566,0.22225 0.08855,0.0889 0.132998,0.19297 0.147814,0.32597 0.01482,0.13335 0.02963,0.2667 0.02963,0.38523 0,0.11854 0,0.2219 0.02963,0.31115 0.01517,0.10337 0.08925,0.16263 0.207433,0.19262 0.14852,0.0296 0.281517,-0.0148 0.385234,-0.14817 0.103716,-0.1337 0.162983,-0.31115 0.207433,-0.5334 0.02963,-0.20743 0.02963,-0.42933 -0.01482,-0.65193 -0.04445,-0.22225 -0.148166,-0.41487 -0.31115,-0.57785 -0.38488,-0.38523 -0.84455,-0.56303 -1.392413,-0.51823 -0.5334,0.0296 -0.992717,0.23707 -1.348317,0.59231 -0.370417,0.37042 -0.637117,0.75601 -0.8001,1.17052 -0.162983,0.41451 -0.236714,0.82973 -0.236714,1.2446 0,0.41451 0.05927,0.81456 0.162631,1.1998 0.118886,0.37041 0.2667,0.69638 0.459669,0.9779 0.399697,0.63711 0.829381,1.21461 1.303161,1.70356 0.45967,0.50377 0.963083,0.94827 1.526117,1.34796 -1.081264,0.71156 -2.014714,1.70392 -2.814461,2.9778 -0.178153,0.26705 -0.325967,0.59267 -0.444853,0.9779 -0.132997,0.37042 -0.192264,0.77047 -0.177447,1.17052 0,0.41451 0.08855,0.82973 0.25153,1.2446 0.162984,0.41451 0.429684,0.79974 0.8001,1.17016 0.3556,0.3556 0.8001,0.54822 1.3335,0.57785 0.533047,0.0296 1.007181,-0.13335 1.407231,-0.50377 0.148166,-0.14816 0.237066,-0.34078 0.296333,-0.57785 0.04445,-0.22225 0.05927,-0.4445 0.01482,-0.65158 -0.04445,-0.20743 -0.118534,-0.37077 -0.22225,-0.50376 -0.103717,-0.13371 -0.236714,-0.19262 -0.385234,-0.16334 -0.11818,0.0296 -0.177447,0.0892 -0.192264,0.17815 -0.01517,0.0889 -0.02999,0.19227 -0.02999,0.31115 0,0.11818 0,0.25153 -0.01482,0.38488 -0.01482,0.13335 -0.07408,0.23707 -0.162984,0.32632 -0.162983,0.16263 -0.399697,0.23672 -0.69603,0.23672 -0.31115,-0.0148 -0.57785,-0.11854 -0.8001,-0.34079 -0.13335,-0.13335 -0.207433,-0.29633 -0.22225,-0.47413 -0.01482,-0.1778 0.01482,-0.35525 0.05927,-0.54822 0.05927,-0.17744 0.13335,-0.3556 0.237066,-0.54786 0.103717,-0.1778 0.221897,-0.3115 0.3556,-0.41487 0.237067,0.1778 0.474134,0.25189 0.726017,0.23707 0.236714,-0.0296 0.444147,-0.1337 0.592666,-0.31115 0.192264,-0.22225 0.340431,-0.4445 0.458964,-0.68157 0.118534,-0.23706 0.162984,-0.48895 0.13335,-0.75565 -0.02963,-0.29633 -0.207433,-0.54821 -0.5334,-0.75529 -0.325614,-0.20744 -0.636763,-0.3556 -0.91828,-0.42969 0.148167,-0.38523 0.38488,-0.72601 0.725664,-1.03716 0.325966,-0.31115 0.637116,-0.54822 0.93345,-0.69639 0.814916,0.40005 1.614664,0.66675 2.399947,0.8001 0.785283,0.13335 1.615016,0.20744 2.488847,0.22261 -0.2667,0.17744 -0.474133,0.37006 -0.60713,0.56268 -0.133351,0.19261 -0.19297,0.37041 -0.207434,0.54821 0,0.16263 0.0441,0.31115 0.148167,0.42933 0.103364,0.11889 0.266347,0.17816 0.48895,0.19262 -0.0448,0.0448 -0.14852,0.16298 -0.296686,0.32597 -0.162631,0.17815 -0.296334,0.3556 -0.399698,0.56303 -0.103716,0.20743 -0.163336,0.41452 -0.178152,0.60748 -0.01482,0.19262 0.08925,0.32597 0.296686,0.41487 -0.05927,0.29633 -0.237067,0.48895 -0.5334,0.54822 -0.296334,0.0593 -0.5334,-0.0148 -0.696384,-0.20744 -0.1778,-0.17815 -0.237066,-0.37041 -0.192616,-0.57785 0.04445,-0.20743 0.22225,-0.40005 0.548216,-0.57785 0.05927,-0.0293 0.0889,-0.0741 0.05927,-0.14816 -0.01482,-0.0593 -0.05927,-0.13335 -0.118533,-0.19262 -0.07408,-0.0741 -0.148167,-0.13335 -0.237067,-0.1778 -0.07408,-0.0593 -0.148167,-0.0737 -0.192617,-0.0593 -0.162983,0.0445 -0.296333,0.0889 -0.414866,0.14817 -0.118181,0.0593 -0.251883,0.16298 -0.399697,0.31115 -0.19297,0.19262 -0.281517,0.47413 -0.2667,0.84455 0.02928,0.3556 0.16263,0.66675 0.414514,0.91863 0.340783,0.34079 0.785283,0.50377 1.333499,0.48895 0.548217,-0.0148 1.022351,-0.28187 1.422048,-0.8001 0.2667,0.0889 0.48895,0.0296 0.66675,-0.16333 0.162983,-0.20708 0.31115,-0.44415 0.414866,-0.72567 0.103717,-0.28151 0.1778,-0.56303 0.222251,-0.82973 0.05927,-0.28152 0.08855,-0.45932 0.103363,-0.5334 0.37077,0.16298 0.652287,0.19262 0.859367,0.0889 0.192617,-0.11853 0.325967,-0.29633 0.37077,-0.53305 0.05891,-0.25188 0.01482,-0.5334 -0.118887,-0.84455 -0.13335,-0.31079 -0.34043,-0.57785 -0.636763,-0.81491 0.325966,0 0.681213,-0.0444 1.09608,-0.13335 0.40005,-0.0741 0.785283,-0.1778 1.1557,-0.31115 0.370064,-0.11854 0.681567,-0.25189 0.963083,-0.3997 0.281517,-0.14852 0.473781,-0.29633 0.563034,-0.44485 v 0"
         style="fill:url(#linearGradient5536);fill-opacity:1;fill-rule:nonzero;stroke:none;stroke-width:0.03527778"
         id="path122"
         inkscape:connector-curvature="0" />
      <path
         sodipodi:nodetypes="ccccc"
         d="m 134.64568,239.32695 -90.709392,0.63712 v 0.38523 l 90.709392,0.69603 v -1.71838"
         style="fill:url(#linearGradient5538);fill-opacity:1;fill-rule:evenodd;stroke:none;stroke-width:0.03527778"
         id="path124"
         inkscape:connector-curvature="0" />
      <path
         sodipodi:nodetypes="ccccc"
         d="m 134.76387,241.04533 90.7094,-0.63676 v -0.38523 l -90.7094,-0.69639 v 1.71838"
         style="fill:url(#linearGradient5540);fill-opacity:1;fill-rule:evenodd;stroke:none;stroke-width:0.03527778"
         id="path126"
         inkscape:connector-curvature="0" />
      <path
         d="m 238.96952,240.14152 c 0.41486,-0.25189 0.889,-0.38488 1.43721,-0.41452 0.54822,-0.0296 1.05163,0.11854 1.52577,0.44415 -0.45932,0.31115 -0.96274,0.45967 -1.52577,0.43004 -0.54821,-0.0148 -1.02235,-0.1778 -1.43721,-0.45967 z m -13.7033,0.0444 c 0.57785,-0.2667 1.18498,-0.45897 1.83691,-0.59267 0.6664,-0.11818 1.34761,-0.17745 2.05916,-0.17745 0.7112,0 1.42205,0.0593 2.1329,0.19262 0.71155,0.13335 1.4224,0.32561 2.10396,0.56268 -1.36277,0.4893 -2.7559,0.74083 -4.19241,0.77047 -1.45203,0.0152 -2.75554,-0.23707 -3.94052,-0.75565 z m 13.25915,3.06669 c 0.1778,0.29634 0.42933,0.50377 0.77047,0.60784 0.32526,0.10336 0.63641,0.0737 0.93309,-0.11889 0.41452,-0.26634 0.6223,-0.57749 0.6223,-0.93309 0.25153,0.0444 0.42933,0.0148 0.53305,-0.0893 0.0889,-0.0889 0.10372,-0.22189 0.0741,-0.39969 -0.0445,-0.19262 -0.13335,-0.40041 -0.29633,-0.63712 -0.16264,-0.23707 -0.38489,-0.45932 -0.65194,-0.66675 0.1778,0.0596 0.37077,0.14817 0.56339,0.2667 0.19226,0.11889 0.37006,0.22225 0.56268,0.32597 0.17745,0.0892 0.3556,0.16298 0.51858,0.20743 0.16263,0.0445 0.3115,0.0296 0.42969,-0.0296 0.22225,-0.16263 0.37006,-0.3556 0.44485,-0.59267 0.0737,-0.23671 0.0737,-0.48895 0,-0.74083 0.22154,-0.0148 0.41416,-0.0293 0.56268,-0.0737 0.16263,-0.0444 0.2219,-0.10407 0.20708,-0.20779 -0.0148,-0.133 -0.0889,-0.2219 -0.25153,-0.23707 -0.14852,-0.0296 -0.34114,-0.0445 -0.56268,-0.0593 0.0741,-0.25189 0.0741,-0.50342 0.0148,-0.74048 -0.0748,-0.25153 -0.20779,-0.4445 -0.41522,-0.59267 -0.10372,-0.0741 -0.25224,-0.0889 -0.42968,-0.0445 -0.1778,0.0445 -0.35596,0.11853 -0.54822,0.20743 -0.1778,0.10372 -0.37042,0.20779 -0.5775,0.34079 -0.19261,0.11818 -0.38558,0.22225 -0.56303,0.28151 0.26635,-0.23706 0.48895,-0.47378 0.65158,-0.7112 0.1778,-0.22225 0.28152,-0.42968 0.32597,-0.60748 0.0445,-0.17745 0.0148,-0.31115 -0.0889,-0.41451 -0.10372,-0.10407 -0.28117,-0.13371 -0.53305,-0.0893 0.0148,-0.19226 -0.0445,-0.37041 -0.16334,-0.53304 -0.13335,-0.14817 -0.28116,-0.29634 -0.45896,-0.41487 -0.29633,-0.1778 -0.60784,-0.20743 -0.94791,-0.0889 -0.32632,0.10372 -0.57785,0.29633 -0.74119,0.59267 -0.0593,0.11853 -0.0296,0.23706 0.0892,0.35524 0.11853,0.11889 0.23672,0.14852 0.35525,0.0889 0.13335,-0.0741 0.29668,-0.14781 0.47378,-0.22189 0.1778,-0.0741 0.32632,-0.0444 0.45967,0.0889 0.17744,0.1778 0.25153,0.40005 0.20708,0.68121 -0.0444,0.28187 -0.2219,0.56303 -0.5334,0.84455 -0.28081,0.25188 -0.56268,0.42968 -0.84385,0.54822 -0.26705,0.10371 -0.51893,0.19261 -0.72601,0.23671 -0.2226,0.0596 -0.4004,0.10407 -0.53305,0.14852 -0.1337,0.0441 -0.19297,0.14817 -0.17815,0.3108 0.0148,0.16333 0.0889,0.28187 0.22225,0.34078 0.133,0.0596 0.3108,0.11889 0.5334,0.16298 0.20708,0.0593 0.45896,0.13335 0.72566,0.25224 0.28152,0.10336 0.56304,0.28116 0.8442,0.53305 0.31115,0.25188 0.47413,0.5334 0.50376,0.82973 0.0296,0.29633 -0.0445,0.5334 -0.22189,0.71085 -0.13335,0.1337 -0.28187,0.16333 -0.44486,0.0892 -0.16227,-0.0744 -0.31044,-0.16298 -0.47377,-0.25188 -0.10372,-0.0445 -0.20744,0 -0.34044,0.10336 -0.11888,0.11853 -0.16333,0.2226 -0.10371,0.34078 z m -14.8149,-3.06664 c 0.10371,0.1337 0.29598,0.28151 0.57785,0.42968 0.28081,0.14817 0.60713,0.28187 0.9779,0.41487 0.35524,0.11853 0.74048,0.22225 1.15534,0.31115 0.3997,0.0744 0.77012,0.11853 1.09644,0.11853 -0.29669,0.23742 -0.50377,0.50377 -0.63747,0.81492 -0.13335,0.31115 -0.1778,0.59266 -0.13335,0.82973 0.0445,0.23671 0.16298,0.41451 0.38523,0.51823 0.20743,0.11853 0.50412,0.0889 0.87418,-0.0741 0.0152,0.0741 0.0448,0.25188 0.0889,0.5334 0.0445,0.28151 0.11854,0.56303 0.2219,0.84455 0.10372,0.28151 0.23707,0.51823 0.41522,0.72601 0.16263,0.19262 0.38523,0.25189 0.65193,0.16263 0.40005,0.51859 0.87419,0.78564 1.4224,0.78564 0.5334,0.0148 0.97755,-0.14817 1.31798,-0.48895 0.2667,-0.2667 0.41522,-0.57785 0.43004,-0.9338 0.0296,-0.34043 -0.0593,-0.62195 -0.28187,-0.82938 -0.14817,-0.14817 -0.26635,-0.25189 -0.38488,-0.29634 -0.10372,-0.0593 -0.25188,-0.10371 -0.41487,-0.14781 -0.0444,-0.0152 -0.10336,0 -0.17815,0.0441 -0.0737,0.0445 -0.133,0.10371 -0.19226,0.16298 -0.0741,0.0741 -0.13335,0.13335 -0.16299,0.20743 -0.0444,0.0593 -0.0296,0.11889 0.0296,0.14852 0.32561,0.17745 0.50376,0.37007 0.54821,0.5775 0.0445,0.20743 -0.0148,0.3997 -0.17745,0.59267 -0.16333,0.19261 -0.38558,0.25188 -0.68191,0.17744 -0.29634,-0.0741 -0.47449,-0.23671 -0.53376,-0.50341 0.20779,-0.0889 0.29669,-0.23707 0.28187,-0.4445 -0.0296,-0.19262 -0.0889,-0.3997 -0.20779,-0.59267 -0.10371,-0.20743 -0.23636,-0.38523 -0.38452,-0.57749 -0.14782,-0.17816 -0.25224,-0.28152 -0.29669,-0.32632 0.2226,-0.0145 0.4004,-0.0885 0.51859,-0.20708 0.10336,-0.10372 0.14781,-0.23742 0.14781,-0.40005 -0.0148,-0.1778 -0.0889,-0.3556 -0.22155,-0.54822 -0.13335,-0.19262 -0.32631,-0.38523 -0.59266,-0.56303 0.85866,-0.0293 1.67393,-0.10372 2.45886,-0.23672 0.80045,-0.1337 1.6002,-0.41522 2.42993,-0.82973 0.3108,0.16263 0.63712,0.3997 0.96308,0.69603 0.32597,0.29633 0.54787,0.63676 0.68122,1.03717 -0.28152,0.10371 -0.5775,0.2667 -0.90347,0.47413 -0.32596,0.20708 -0.50411,0.45896 -0.53375,0.7553 -0.0296,0.2667 0,0.51858 0.11854,0.74083 0.10406,0.23707 0.26705,0.47413 0.47413,0.7112 0.13335,0.19262 0.32632,0.28152 0.57785,0.28152 0.25188,0 0.50377,-0.0889 0.74118,-0.2667 0.11819,0.11853 0.23672,0.2667 0.34044,0.42933 0.11818,0.17815 0.19296,0.35595 0.23706,0.54821 0.0445,0.19297 0.0593,0.38524 0.0445,0.56304 -0.0148,0.1778 -0.0885,0.32596 -0.22225,0.45931 -0.22225,0.22261 -0.4893,0.34079 -0.78528,0.3556 -0.3115,0 -0.53305,-0.0741 -0.68122,-0.22225 -0.0889,-0.0889 -0.14851,-0.19261 -0.16333,-0.32596 -0.0148,-0.13335 -0.0148,-0.2667 -0.0148,-0.38524 0,-0.11853 -0.0148,-0.22189 -0.0445,-0.32561 -0.0148,-0.0892 -0.0885,-0.14852 -0.20708,-0.1778 -0.14817,-0.0296 -0.26706,0.0148 -0.37077,0.14817 -0.10337,0.13335 -0.17745,0.31115 -0.2219,0.51858 -0.0296,0.2219 -0.0296,0.44415 0.0148,0.6664 0.0445,0.22225 0.14782,0.41486 0.3108,0.57785 0.38558,0.38523 0.8449,0.56303 1.39277,0.51858 0.54821,-0.0296 0.99271,-0.23707 1.34796,-0.59267 0.37042,-0.37041 0.63747,-0.75565 0.80045,-1.17016 0.16263,-0.41487 0.23672,-0.82973 0.23672,-1.2446 0,-0.41487 -0.0445,-0.81492 -0.16299,-1.20015 -0.10336,-0.37042 -0.2667,-0.71085 -0.45931,-0.99236 -0.3997,-0.63712 -0.82903,-1.20015 -1.2887,-1.6891 -0.47413,-0.50377 -0.97755,-0.94792 -1.52577,-1.34797 1.06645,-0.7112 1.9999,-1.70391 2.79965,-2.97779 0.1778,-0.28187 0.32632,-0.59267 0.45932,-0.9779 0.11853,-0.37042 0.1778,-0.77047 0.1778,-1.17017 -0.0148,-0.41486 -0.10372,-0.82973 -0.26635,-1.2446 -0.16334,-0.41486 -0.43004,-0.8001 -0.8001,-1.17016 -0.35525,-0.3556 -0.8001,-0.54822 -1.3335,-0.57785 -0.53305,-0.03 -0.99237,0.133 -1.39277,0.50341 -0.14816,0.14817 -0.25153,0.34079 -0.3108,0.56304 -0.0445,0.23706 -0.0445,0.45931 0,0.66675 0.0444,0.20743 0.11854,0.37041 0.2219,0.50376 0.10372,0.133 0.2226,0.19262 0.37077,0.16263 0.11853,-0.0296 0.19227,-0.0889 0.20708,-0.17744 0.0148,-0.0889 0.0148,-0.19297 0.0148,-0.31115 0,-0.11854 0.0148,-0.25189 0.0296,-0.38524 0.0148,-0.13335 0.0593,-0.23706 0.14852,-0.32596 0.16298,-0.16299 0.39935,-0.25189 0.71085,-0.23707 0.29598,0 0.56303,0.11853 0.78528,0.34078 0.1337,0.13335 0.20744,0.29634 0.22225,0.47414 0.0148,0.1778 0,0.3556 -0.0589,0.54786 -0.0444,0.17815 -0.13405,0.3556 -0.23742,0.53375 -0.10371,0.1778 -0.22225,0.32597 -0.35524,0.42933 -0.23742,-0.1778 -0.47449,-0.25153 -0.72637,-0.23706 -0.23672,0.0296 -0.42969,0.11853 -0.57785,0.29633 -0.19227,0.2226 -0.35525,0.45932 -0.47414,0.69638 -0.11853,0.23707 -0.16263,0.48895 -0.13335,0.75565 0.0296,0.29598 0.20744,0.54822 0.53376,0.75565 0.32596,0.20744 0.63676,0.3556 0.91828,0.42933 -0.14852,0.38524 -0.38488,0.72602 -0.7112,1.03717 -0.32562,0.31115 -0.63712,0.54822 -0.9331,0.69638 -0.81492,-0.40005 -1.61466,-0.66675 -2.41512,-0.8001 -0.78493,-0.13335 -1.61501,-0.20743 -2.48849,-0.22225 0.26635,-0.1778 0.47413,-0.37006 0.60748,-0.56303 0.13265,-0.19226 0.20673,-0.37006 0.20673,-0.54786 0.0148,-0.16334 -0.0444,-0.31115 -0.14781,-0.43004 -0.10337,-0.11818 -0.26635,-0.19226 -0.48895,-0.20743 0.0444,-0.0441 0.14887,-0.14782 0.3115,-0.3108 0.14817,-0.1778 0.28081,-0.37042 0.38453,-0.57785 0.10407,-0.20743 0.16333,-0.40005 0.17815,-0.59267 0.0148,-0.19261 -0.0889,-0.34043 -0.29669,-0.42933 0.0593,-0.29668 0.23742,-0.47413 0.53376,-0.5334 0.29633,-0.0593 0.5334,0.0148 0.69603,0.20708 0.17815,0.17816 0.23742,0.37042 0.19297,0.57785 -0.0445,0.20744 -0.22261,0.40005 -0.54822,0.57821 -0.0593,0.0296 -0.0741,0.0737 -0.0593,0.14781 0.0296,0.0593 0.0593,0.11853 0.11854,0.1778 0.0741,0.0741 0.16298,0.14817 0.23671,0.19226 0.0896,0.0596 0.14887,0.0744 0.19297,0.0596 0.16298,-0.0445 0.29633,-0.10371 0.41451,-0.16298 0.11889,-0.0593 0.25189,-0.16298 0.40005,-0.31115 0.20779,-0.19262 0.28187,-0.45932 0.26706,-0.82973 -0.0296,-0.35525 -0.16334,-0.6664 -0.41522,-0.91828 -0.34043,-0.34079 -0.78458,-0.50377 -1.3328,-0.48895 -0.54857,0.0148 -1.02235,0.28151 -1.4224,0.8001 -0.26705,-0.0889 -0.48895,-0.0296 -0.66675,0.16263 -0.16333,0.20743 -0.29668,0.4445 -0.4004,0.72601 -0.10336,0.28152 -0.19226,0.56304 -0.23636,0.82974 -0.0596,0.28151 -0.0892,0.4445 -0.10407,0.51858 -0.37007,-0.16298 -0.65193,-0.1778 -0.85902,-0.0741 -0.19296,0.11853 -0.32631,0.29633 -0.37076,0.5334 -0.0593,0.25153 -0.0148,0.5334 0.11853,0.84419 0.1337,0.31115 0.3556,0.57785 0.65228,0.81492 -0.32631,0 -0.69673,0.0448 -1.11125,0.11853 -0.40005,0.0889 -0.78528,0.19262 -1.15605,0.31115 -0.35525,0.13335 -0.68156,0.26635 -0.96237,0.41487 -0.28188,0.14781 -0.47414,0.29633 -0.56304,0.44415 v 0"
         style="fill:url(#linearGradient5542);fill-opacity:1;fill-rule:nonzero;stroke:none;stroke-width:0.03527778"
         id="path128"
         inkscape:connector-curvature="0" />
    </g>
  </g>
</svg>
